<svg width="241" height="32" viewBox="0 0 241 32" fill="none" xmlns="http://www.w3.org/2000/svg">
<path d="M19.456 16.768V24H0.992V21.92H1.312C1.86667 21.92 2.32533 21.8453 2.688 21.696C3.05067 21.5467 3.232 21.2373 3.232 20.768V4.512C3.232 4.04267 3.05067 3.73333 2.688 3.584C2.32533 3.43467 1.86667 3.36 1.312 3.36H0.992V1.28H18.592V7.712H15.968L15.712 5.088C15.6907 4.704 15.5413 4.416 15.264 4.224C15.008 4.01067 14.6347 3.872 14.144 3.808C13.6747 3.744 13.0987 3.712 12.416 3.712H9.408V21.568H12.736C13.376 21.568 13.92 21.5573 14.368 21.536C14.8373 21.4933 15.2107 21.4187 15.488 21.312C15.7867 21.2053 16.0107 21.0667 16.16 20.896C16.3093 20.704 16.3947 20.4693 16.416 20.192L16.8 16.768H19.456ZM8.512 11.328C9.344 11.264 10.1653 11.2213 10.976 11.2C11.7867 11.1573 12.5867 11.1147 13.376 11.072C14.1867 11.008 14.9867 10.9547 15.776 10.912V13.856C14.9867 13.792 14.1867 13.7387 13.376 13.696C12.5867 13.632 11.7867 13.5787 10.976 13.536C10.1653 13.4933 9.344 13.4507 8.512 13.408V11.328ZM21.6125 24V22.048H21.6445C21.9645 22.048 22.2525 22.0267 22.5085 21.984C22.7645 21.92 22.9565 21.824 23.0845 21.696C23.2338 21.5467 23.3085 21.344 23.3085 21.088V10.752C23.3085 10.5173 23.2552 10.3467 23.1485 10.24C23.0632 10.112 22.9138 10.016 22.7005 9.952C22.4872 9.86667 22.2098 9.78133 21.8685 9.696L21.6125 9.632V7.584H28.7805V11.136H29.1645V21.76C29.1645 21.824 29.2392 21.8773 29.3885 21.92C29.5592 21.9627 29.7512 21.9947 29.9645 22.016C30.1992 22.0373 30.4125 22.048 30.6045 22.048H30.7005V24H21.6125ZM41.7405 24H32.6525V22.048H32.6845C32.8765 22.048 33.0898 22.048 33.3245 22.048C33.5592 22.0267 33.7618 21.9947 33.9325 21.952C34.1032 21.888 34.1885 21.824 34.1885 21.76V12.736C34.1885 12.2027 34.1245 11.7653 33.9965 11.424C33.8685 11.0827 33.6765 10.8267 33.4205 10.656C33.1645 10.4853 32.8232 10.4 32.3965 10.4C31.8845 10.4 31.4045 10.5493 30.9565 10.848C30.5085 11.1253 30.0818 11.5413 29.6765 12.096C29.2712 12.6507 28.8872 13.344 28.5245 14.176L28.4605 11.232C28.8872 10.4 29.3885 9.696 29.9645 9.12C30.5618 8.52267 31.2445 8.064 32.0125 7.744C32.8018 7.424 33.6658 7.264 34.6045 7.264C35.6925 7.264 36.6418 7.47733 37.4525 7.904C38.2632 8.30933 38.8925 8.928 39.3405 9.76C39.7885 10.5707 40.0125 11.584 40.0125 12.8V21.088C40.0125 21.344 40.0872 21.5467 40.2365 21.696C40.3858 21.824 40.5778 21.92 40.8125 21.984C41.0685 22.0267 41.3565 22.048 41.6765 22.048H41.7405V24ZM49.13 15.872C49.13 16.832 49.2153 17.6853 49.386 18.432C49.5567 19.1573 49.8233 19.776 50.186 20.288C50.5487 20.7787 50.9967 21.152 51.53 21.408C52.0847 21.6427 52.7247 21.76 53.45 21.76C54.218 21.76 54.8793 21.6213 55.434 21.344C55.9887 21.0453 56.4687 20.6613 56.874 20.192C57.2793 19.7227 57.61 19.2533 57.866 18.784L59.85 20.192C59.4447 21.0027 58.9113 21.7173 58.25 22.336C57.5887 22.9547 56.7887 23.4453 55.85 23.808C54.9327 24.1493 53.834 24.32 52.554 24.32C50.698 24.32 49.066 23.9787 47.658 23.296C46.2713 22.6133 45.194 21.6427 44.426 20.384C43.658 19.104 43.274 17.5893 43.274 15.84C43.274 14.1333 43.6473 12.64 44.394 11.36C45.162 10.0587 46.1967 9.056 47.498 8.352C48.8207 7.62667 50.314 7.264 51.978 7.264C53.322 7.264 54.4953 7.46667 55.498 7.872C56.522 8.256 57.3753 8.84267 58.058 9.632C58.7407 10.4213 59.2633 11.4027 59.626 12.576C59.9887 13.7493 60.17 15.1253 60.17 16.704H48.362L48.33 14.432H55.434L54.73 15.36C54.7087 14.272 54.6447 13.3653 54.538 12.64C54.4313 11.9147 54.2713 11.3387 54.058 10.912C53.8447 10.4853 53.578 10.1867 53.258 10.016C52.938 9.824 52.554 9.728 52.106 9.728C51.658 9.728 51.2527 9.84533 50.89 10.08C50.5273 10.3147 50.218 10.6773 49.962 11.168C49.706 11.6587 49.5033 12.2987 49.354 13.088C49.2047 13.856 49.13 14.784 49.13 15.872ZM74.8553 7.552V12.512C74.6846 12.448 74.4926 12.4053 74.2793 12.384C74.0873 12.3413 73.8739 12.3093 73.6393 12.288C73.4046 12.2667 73.1699 12.256 72.9353 12.256C72.4446 12.256 71.9859 12.3093 71.5593 12.416C71.1539 12.5013 70.7699 12.6507 70.4073 12.864C70.0659 13.056 69.7566 13.3227 69.4792 13.664C69.2019 13.984 68.9459 14.3893 68.7113 14.88V13.056C68.9886 11.9467 69.3299 10.9653 69.7353 10.112C70.1619 9.25867 70.6846 8.59733 71.3033 8.128C71.9219 7.63733 72.7113 7.392 73.6713 7.392C73.9273 7.392 74.1619 7.41333 74.3753 7.456C74.5886 7.47733 74.7486 7.50933 74.8553 7.552ZM61.8313 24V22.048H61.8633C62.3539 22.048 62.7486 21.984 63.0473 21.856C63.3673 21.728 63.5273 21.472 63.5273 21.088V10.752C63.5273 10.5387 63.4739 10.368 63.3673 10.24C63.2819 10.112 63.1326 10.016 62.9193 9.952C62.7059 9.86667 62.4286 9.78133 62.0872 9.696L61.8313 9.632V7.584H68.9993V12.8L69.3833 12.416V21.472C69.3833 21.6427 69.5006 21.7707 69.7353 21.856C69.9699 21.9413 70.2473 21.9947 70.5673 22.016C70.8873 22.0373 71.1753 22.048 71.4313 22.048H71.7193V24H61.8313ZM94.8355 10.912C94.0248 10.7627 93.2995 10.6667 92.6595 10.624C92.0195 10.56 91.4542 10.5387 90.9635 10.56C90.4728 10.5813 90.0675 10.688 89.7475 10.88L89.1395 10.656C89.4808 10.016 89.8435 9.45067 90.2275 8.96C90.6115 8.448 91.0275 8.032 91.4755 7.712C91.9448 7.392 92.4568 7.168 93.0115 7.04C93.5662 6.89067 94.1742 6.85867 94.8355 6.944V10.912ZM84.4355 18.816C82.9208 18.816 81.5875 18.592 80.4355 18.144C79.3048 17.6747 78.4195 17.0133 77.7795 16.16C77.1395 15.3067 76.8195 14.2933 76.8195 13.12C76.8195 11.9253 77.1395 10.9013 77.7795 10.048C78.4195 9.17333 79.3155 8.49067 80.4675 8C81.6195 7.50933 82.9422 7.264 84.4355 7.264C85.9502 7.264 87.2835 7.50933 88.4355 8C89.5875 8.49067 90.4835 9.17333 91.1235 10.048C91.7848 10.9013 92.1155 11.9253 92.1155 13.12C92.1155 14.2933 91.7848 15.3067 91.1235 16.16C90.4835 17.0133 89.5875 17.6747 88.4355 18.144C87.2835 18.592 85.9502 18.816 84.4355 18.816ZM84.4355 16.672C84.9262 16.672 85.3422 16.5547 85.6835 16.32C86.0248 16.064 86.2808 15.68 86.4515 15.168C86.6222 14.6347 86.7075 13.9627 86.7075 13.152C86.7075 12.32 86.6222 11.6373 86.4515 11.104C86.2808 10.5707 86.0248 10.176 85.6835 9.92C85.3422 9.664 84.9262 9.536 84.4355 9.536C83.9875 9.536 83.5928 9.664 83.2515 9.92C82.9102 10.176 82.6435 10.5707 82.4515 11.104C82.2808 11.6373 82.1955 12.32 82.1955 13.152C82.1955 13.9627 82.2808 14.6347 82.4515 15.168C82.6435 15.68 82.8995 16.064 83.2195 16.32C83.5608 16.5547 83.9662 16.672 84.4355 16.672ZM83.3475 31.584C81.7262 31.584 80.2968 31.456 79.0595 31.2C77.8435 30.9653 76.8835 30.5707 76.1795 30.016C75.4968 29.4613 75.1555 28.7253 75.1555 27.808C75.1555 27.2747 75.3155 26.8053 75.6355 26.4C75.9555 25.9947 76.4675 25.632 77.1715 25.312C77.8968 25.0133 78.8462 24.736 80.0195 24.48L81.2035 25.376C80.7768 25.568 80.4248 25.7707 80.1475 25.984C79.8915 26.1973 79.6995 26.4213 79.5715 26.656C79.4648 26.8907 79.4115 27.1573 79.4115 27.456C79.4115 27.8613 79.5608 28.2027 79.8595 28.48C80.1795 28.7573 80.6702 28.96 81.3315 29.088C81.9928 29.2373 82.8568 29.312 83.9235 29.312H84.8515C85.9182 29.312 86.8142 29.216 87.5395 29.024C88.2862 28.832 88.8408 28.5653 89.2035 28.224C89.5875 27.8827 89.7795 27.488 89.7795 27.04C89.7795 26.656 89.6302 26.368 89.3315 26.176C89.0542 25.984 88.5208 25.888 87.7315 25.888H79.5395L79.3795 25.408C78.6755 25.1307 78.0782 24.8213 77.5875 24.48C77.1182 24.1387 76.7662 23.7333 76.5315 23.264C76.3182 22.7947 76.2115 22.2613 76.2115 21.664C76.2115 21.0027 76.3822 20.4053 76.7235 19.872C77.0862 19.3387 77.6088 18.8587 78.2915 18.432C78.9742 17.984 79.8062 17.6 80.7875 17.28L82.5475 18.08C82.0995 18.2507 81.7048 18.432 81.3635 18.624C81.0435 18.816 80.7982 19.0293 80.6275 19.264C80.4782 19.4773 80.4035 19.7227 80.4035 20C80.4035 20.384 80.5635 20.6613 80.8835 20.832C81.2248 21.0027 81.7475 21.088 82.4515 21.088H87.9875C89.4168 21.088 90.6115 21.248 91.5715 21.568C92.5315 21.888 93.2568 22.3787 93.7475 23.04C94.2595 23.68 94.5155 24.4907 94.5155 25.472C94.5155 26.8587 94.0995 28 93.2675 28.896C92.4568 29.792 91.3368 30.464 89.9075 30.912C88.4782 31.36 86.8568 31.584 85.0435 31.584H83.3475ZM107.404 20.384L105.74 23.552L104.236 25.728L97.548 10.656C97.42 10.3573 97.2813 10.1333 97.132 9.984C96.9827 9.81333 96.8013 9.696 96.588 9.632C96.3747 9.568 96.0973 9.536 95.756 9.536H95.724V7.584H105.292V9.536H105.228C104.908 9.536 104.588 9.54667 104.268 9.568C103.948 9.58933 103.681 9.62133 103.468 9.664C103.276 9.68533 103.18 9.73867 103.18 9.824L107.404 20.384ZM107.212 23.456C106.593 24.8853 105.975 26.1013 105.356 27.104C104.759 28.128 104.151 28.96 103.532 29.6C102.935 30.24 102.295 30.7093 101.612 31.008C100.951 31.328 100.225 31.488 99.436 31.488C98.8173 31.488 98.284 31.4133 97.836 31.264C97.4093 31.1147 97.0787 30.9547 96.844 30.784V26.592C96.9507 26.6133 97.1533 26.688 97.452 26.816C97.772 26.944 98.156 27.072 98.604 27.2C99.052 27.328 99.5213 27.392 100.012 27.392C100.524 27.392 100.983 27.328 101.388 27.2C101.815 27.072 102.22 26.8587 102.604 26.56C102.988 26.2613 103.361 25.8347 103.724 25.28C104.087 24.7467 104.428 24.0747 104.748 23.264L105.452 21.696L110.38 10.24C110.38 10.0907 110.284 9.97333 110.092 9.888C109.921 9.78133 109.676 9.696 109.356 9.632C109.057 9.568 108.748 9.536 108.428 9.536H108.332V7.584H114.54V9.536H114.508C114.231 9.536 113.985 9.57867 113.772 9.664C113.559 9.74933 113.356 9.89867 113.164 10.112C112.972 10.3253 112.801 10.6133 112.652 10.976L107.212 23.456ZM124.158 3.712V20.768C124.158 21.0453 124.222 21.2693 124.35 21.44C124.478 21.5893 124.649 21.696 124.862 21.76C125.097 21.824 125.353 21.8667 125.63 21.888C125.907 21.9093 126.174 21.92 126.43 21.92H126.974V24H115.742V21.92H116.062C116.617 21.92 117.075 21.8453 117.438 21.696C117.801 21.5467 117.982 21.2373 117.982 20.768V4.512C117.982 4.04267 117.801 3.73333 117.438 3.584C117.075 3.43467 116.617 3.36 116.062 3.36H115.742V1.28H133.502V7.712H130.878L130.622 5.088C130.579 4.704 130.43 4.416 130.174 4.224C129.918 4.01067 129.555 3.872 129.086 3.808C128.617 3.744 128.03 3.712 127.326 3.712H124.158ZM123.262 11.52C124.137 11.4773 124.99 11.4347 125.822 11.392C126.654 11.3493 127.475 11.3067 128.286 11.264C129.118 11.2 129.95 11.1467 130.782 11.104V14.08C129.95 14.016 129.118 13.9627 128.286 13.92C127.454 13.856 126.622 13.8027 125.79 13.76C124.979 13.7173 124.137 13.6747 123.262 13.632V11.52ZM140 5.344C139.04 5.344 138.272 5.12 137.696 4.672C137.142 4.20267 136.864 3.552 136.864 2.72C136.864 1.888 137.142 1.248 137.696 0.799999C138.272 0.330666 139.04 0.0959988 140 0.0959988C140.982 0.0959988 141.75 0.330666 142.304 0.799999C142.88 1.248 143.168 1.888 143.168 2.72C143.168 3.552 142.88 4.20267 142.304 4.672C141.75 5.12 140.982 5.344 140 5.344ZM143.008 7.584V21.088C143.008 21.472 143.168 21.728 143.488 21.856C143.83 21.984 144.235 22.048 144.704 22.048H144.736V24H135.456V22.048H135.488C135.979 22.048 136.384 21.984 136.704 21.856C137.024 21.728 137.184 21.472 137.184 21.088V10.752C137.184 10.4107 137.067 10.176 136.832 10.048C136.598 9.92 136.224 9.80267 135.712 9.696L135.456 9.632V7.584H143.008ZM145.409 9.856V7.744H145.505C145.975 7.744 146.38 7.712 146.721 7.648C147.063 7.56267 147.329 7.424 147.521 7.232C147.713 7.01867 147.809 6.73067 147.809 6.368L151.009 7.584H157.537V9.856H145.409ZM153.409 18.4C153.409 19.232 153.495 19.8933 153.665 20.384C153.857 20.8533 154.124 21.1947 154.465 21.408C154.807 21.6 155.223 21.696 155.713 21.696C156.119 21.696 156.503 21.6533 156.865 21.568C157.228 21.4613 157.505 21.3867 157.697 21.344V23.744C157.527 23.8293 157.271 23.9147 156.929 24C156.588 24.0853 156.193 24.16 155.745 24.224C155.297 24.288 154.785 24.32 154.209 24.32C152.951 24.32 151.82 24.1387 150.817 23.776C149.815 23.4133 149.015 22.8053 148.417 21.952C147.841 21.0987 147.553 19.936 147.553 18.464V8.192L147.809 7.936L147.841 3.136H153.409V18.4ZM188.554 15.744V20.672C188.234 21.0773 187.765 21.504 187.146 21.952C186.549 22.3787 185.834 22.7733 185.002 23.136C184.191 23.4773 183.285 23.7653 182.282 24C181.301 24.2133 180.266 24.32 179.178 24.32C177.407 24.32 175.797 24.0427 174.346 23.488C172.917 22.9333 171.679 22.144 170.634 21.12C169.589 20.096 168.778 18.8693 168.202 17.44C167.647 16.0107 167.37 14.4107 167.37 12.64C167.37 10.9333 167.658 9.36533 168.234 7.936C168.831 6.50667 169.653 5.26933 170.698 4.224C171.743 3.17867 172.959 2.37867 174.346 1.824C175.754 1.248 177.269 0.959999 178.89 0.959999C180.426 0.959999 181.706 1.216 182.73 1.728C183.754 2.24 184.575 2.944 185.194 3.84C185.834 4.736 186.335 5.76 186.698 6.912L185.002 6.592L185.61 1.28H188.138V8.416H185.226C184.927 7.456 184.533 6.61333 184.042 5.888C183.551 5.14133 182.943 4.56533 182.218 4.16C181.514 3.75467 180.65 3.552 179.626 3.552C178.73 3.552 177.919 3.76533 177.194 4.192C176.49 4.61867 175.882 5.22667 175.37 6.016C174.879 6.80533 174.495 7.76533 174.218 8.896C173.962 10.0053 173.834 11.2533 173.834 12.64C173.834 14.1333 173.962 15.456 174.218 16.608C174.474 17.7387 174.847 18.688 175.338 19.456C175.85 20.2027 176.458 20.768 177.162 21.152C177.866 21.536 178.645 21.728 179.498 21.728C180.138 21.728 180.682 21.6533 181.13 21.504C181.578 21.3547 181.951 21.184 182.25 20.992C182.549 20.7787 182.783 20.5867 182.954 20.416V15.744C182.954 15.2747 182.773 14.9653 182.41 14.816C182.069 14.6667 181.61 14.592 181.034 14.592H180.714V12.512H190.346V14.592H190.154C189.706 14.592 189.322 14.6667 189.002 14.816C188.703 14.9653 188.554 15.2747 188.554 15.744ZM202.904 20.384L201.24 23.552L199.736 25.728L193.048 10.656C192.92 10.3573 192.781 10.1333 192.632 9.984C192.483 9.81333 192.301 9.696 192.088 9.632C191.875 9.568 191.597 9.536 191.256 9.536H191.224V7.584H200.792V9.536H200.728C200.408 9.536 200.088 9.54667 199.768 9.568C199.448 9.58933 199.181 9.62133 198.968 9.664C198.776 9.68533 198.68 9.73867 198.68 9.824L202.904 20.384ZM202.712 23.456C202.093 24.8853 201.475 26.1013 200.856 27.104C200.259 28.128 199.651 28.96 199.032 29.6C198.435 30.24 197.795 30.7093 197.112 31.008C196.451 31.328 195.725 31.488 194.936 31.488C194.317 31.488 193.784 31.4133 193.336 31.264C192.909 31.1147 192.579 30.9547 192.344 30.784V26.592C192.451 26.6133 192.653 26.688 192.952 26.816C193.272 26.944 193.656 27.072 194.104 27.2C194.552 27.328 195.021 27.392 195.512 27.392C196.024 27.392 196.483 27.328 196.888 27.2C197.315 27.072 197.72 26.8587 198.104 26.56C198.488 26.2613 198.861 25.8347 199.224 25.28C199.587 24.7467 199.928 24.0747 200.248 23.264L200.952 21.696L205.88 10.24C205.88 10.0907 205.784 9.97333 205.592 9.888C205.421 9.78133 205.176 9.696 204.856 9.632C204.557 9.568 204.248 9.536 203.928 9.536H203.832V7.584H210.04V9.536H210.008C209.731 9.536 209.485 9.57867 209.272 9.664C209.059 9.74933 208.856 9.89867 208.664 10.112C208.472 10.3253 208.301 10.6133 208.152 10.976L202.712 23.456ZM211.05 24V22.048H211.082C211.573 22.048 211.967 21.984 212.266 21.856C212.586 21.728 212.746 21.472 212.746 21.088V10.752C212.746 10.5387 212.693 10.368 212.586 10.24C212.501 10.112 212.351 10.016 212.138 9.952C211.925 9.86667 211.647 9.78133 211.306 9.696L211.05 9.632V7.584H218.218V11.232L218.602 11.136V21.76C218.602 21.824 218.666 21.888 218.794 21.952C218.943 21.9947 219.103 22.0267 219.274 22.048C219.466 22.048 219.647 22.048 219.818 22.048H219.914V24H211.05ZM230.026 24H221.546V22.048H221.578C221.77 22.048 221.962 22.048 222.154 22.048C222.346 22.0267 222.506 21.9947 222.634 21.952C222.783 21.888 222.858 21.824 222.858 21.76V12.768C222.858 12.2347 222.815 11.7973 222.73 11.456C222.645 11.0933 222.495 10.8267 222.282 10.656C222.09 10.4853 221.802 10.4 221.418 10.4C221.013 10.4 220.618 10.528 220.234 10.784C219.85 11.0187 219.466 11.4027 219.082 11.936C218.719 12.4693 218.346 13.1733 217.962 14.048L217.898 11.168C218.346 10.336 218.847 9.632 219.402 9.056C219.957 8.48 220.586 8.04267 221.29 7.744C222.015 7.424 222.805 7.264 223.658 7.264C224.661 7.264 225.546 7.47733 226.314 7.904C227.082 8.30933 227.669 8.928 228.074 9.76C228.501 10.5707 228.714 11.584 228.714 12.8V21.728C228.714 21.8133 228.778 21.888 228.906 21.952C229.055 21.9947 229.226 22.0267 229.418 22.048C229.631 22.048 229.823 22.048 229.994 22.048H230.026V24ZM240.586 24H231.69V22.048H231.754C231.925 22.048 232.106 22.0373 232.298 22.016C232.49 21.9947 232.65 21.9627 232.778 21.92C232.927 21.8773 233.002 21.824 233.002 21.76V12.768C233.002 12.2347 232.949 11.7973 232.842 11.456C232.757 11.0933 232.607 10.8267 232.394 10.656C232.202 10.4853 231.914 10.4 231.53 10.4C231.103 10.4 230.698 10.5387 230.314 10.816C229.93 11.072 229.557 11.4667 229.194 12C228.831 12.512 228.458 13.1733 228.074 13.984L228.01 11.168C228.458 10.336 228.959 9.632 229.514 9.056C230.09 8.48 230.73 8.04267 231.434 7.744C232.138 7.424 232.917 7.264 233.77 7.264C234.773 7.264 235.658 7.47733 236.426 7.904C237.194 8.30933 237.781 8.928 238.186 9.76C238.613 10.5707 238.826 11.584 238.826 12.8V21.088C238.826 21.472 238.986 21.728 239.306 21.856C239.626 21.984 240.021 22.048 240.49 22.048H240.586V24Z" fill="#5D0000"/>
</svg>
