<svg width="282" height="37" viewBox="0 0 282 37" fill="none" xmlns="http://www.w3.org/2000/svg">
<path d="M19.456 21.768V29H0.992V26.92H1.312C1.86667 26.92 2.32533 26.8453 2.688 26.696C3.05067 26.5467 3.232 26.2373 3.232 25.768V9.512C3.232 9.04267 3.05067 8.73333 2.688 8.584C2.32533 8.43467 1.86667 8.36 1.312 8.36H0.992V6.28H18.592V12.712H15.968L15.712 10.088C15.6907 9.704 15.5413 9.416 15.264 9.224C15.008 9.01067 14.6347 8.872 14.144 8.808C13.6747 8.744 13.0987 8.712 12.416 8.712H9.408V26.568H12.736C13.376 26.568 13.92 26.5573 14.368 26.536C14.8373 26.4933 15.2107 26.4187 15.488 26.312C15.7867 26.2053 16.0107 26.0667 16.16 25.896C16.3093 25.704 16.3947 25.4693 16.416 25.192L16.8 21.768H19.456ZM8.512 16.328C9.344 16.264 10.1653 16.2213 10.976 16.2C11.7867 16.1573 12.5867 16.1147 13.376 16.072C14.1867 16.008 14.9867 15.9547 15.776 15.912V18.856C14.9867 18.792 14.1867 18.7387 13.376 18.696C12.5867 18.632 11.7867 18.5787 10.976 18.536C10.1653 18.4933 9.344 18.4507 8.512 18.408V16.328ZM21.6125 29V27.048H21.6445C21.9645 27.048 22.2525 27.0267 22.5085 26.984C22.7645 26.92 22.9565 26.824 23.0845 26.696C23.2338 26.5467 23.3085 26.344 23.3085 26.088V15.752C23.3085 15.5173 23.2552 15.3467 23.1485 15.24C23.0632 15.112 22.9138 15.016 22.7005 14.952C22.4872 14.8667 22.2098 14.7813 21.8685 14.696L21.6125 14.632V12.584H28.7805V16.136H29.1645V26.76C29.1645 26.824 29.2392 26.8773 29.3885 26.92C29.5592 26.9627 29.7512 26.9947 29.9645 27.016C30.1992 27.0373 30.4125 27.048 30.6045 27.048H30.7005V29H21.6125ZM41.7405 29H32.6525V27.048H32.6845C32.8765 27.048 33.0898 27.048 33.3245 27.048C33.5592 27.0267 33.7618 26.9947 33.9325 26.952C34.1032 26.888 34.1885 26.824 34.1885 26.76V17.736C34.1885 17.2027 34.1245 16.7653 33.9965 16.424C33.8685 16.0827 33.6765 15.8267 33.4205 15.656C33.1645 15.4853 32.8232 15.4 32.3965 15.4C31.8845 15.4 31.4045 15.5493 30.9565 15.848C30.5085 16.1253 30.0818 16.5413 29.6765 17.096C29.2712 17.6507 28.8872 18.344 28.5245 19.176L28.4605 16.232C28.8872 15.4 29.3885 14.696 29.9645 14.12C30.5618 13.5227 31.2445 13.064 32.0125 12.744C32.8018 12.424 33.6658 12.264 34.6045 12.264C35.6925 12.264 36.6418 12.4773 37.4525 12.904C38.2632 13.3093 38.8925 13.928 39.3405 14.76C39.7885 15.5707 40.0125 16.584 40.0125 17.8V26.088C40.0125 26.344 40.0872 26.5467 40.2365 26.696C40.3858 26.824 40.5778 26.92 40.8125 26.984C41.0685 27.0267 41.3565 27.048 41.6765 27.048H41.7405V29ZM49.13 20.872C49.13 21.832 49.2153 22.6853 49.386 23.432C49.5567 24.1573 49.8233 24.776 50.186 25.288C50.5487 25.7787 50.9967 26.152 51.53 26.408C52.0847 26.6427 52.7247 26.76 53.45 26.76C54.218 26.76 54.8793 26.6213 55.434 26.344C55.9887 26.0453 56.4687 25.6613 56.874 25.192C57.2793 24.7227 57.61 24.2533 57.866 23.784L59.85 25.192C59.4447 26.0027 58.9113 26.7173 58.25 27.336C57.5887 27.9547 56.7887 28.4453 55.85 28.808C54.9327 29.1493 53.834 29.32 52.554 29.32C50.698 29.32 49.066 28.9787 47.658 28.296C46.2713 27.6133 45.194 26.6427 44.426 25.384C43.658 24.104 43.274 22.5893 43.274 20.84C43.274 19.1333 43.6473 17.64 44.394 16.36C45.162 15.0587 46.1967 14.056 47.498 13.352C48.8207 12.6267 50.314 12.264 51.978 12.264C53.322 12.264 54.4953 12.4667 55.498 12.872C56.522 13.256 57.3753 13.8427 58.058 14.632C58.7407 15.4213 59.2633 16.4027 59.626 17.576C59.9887 18.7493 60.17 20.1253 60.17 21.704H48.362L48.33 19.432H55.434L54.73 20.36C54.7087 19.272 54.6447 18.3653 54.538 17.64C54.4313 16.9147 54.2713 16.3387 54.058 15.912C53.8447 15.4853 53.578 15.1867 53.258 15.016C52.938 14.824 52.554 14.728 52.106 14.728C51.658 14.728 51.2527 14.8453 50.89 15.08C50.5273 15.3147 50.218 15.6773 49.962 16.168C49.706 16.6587 49.5033 17.2987 49.354 18.088C49.2047 18.856 49.13 19.784 49.13 20.872ZM74.8553 12.552V17.512C74.6846 17.448 74.4926 17.4053 74.2793 17.384C74.0873 17.3413 73.8739 17.3093 73.6393 17.288C73.4046 17.2667 73.1699 17.256 72.9353 17.256C72.4446 17.256 71.9859 17.3093 71.5593 17.416C71.1539 17.5013 70.7699 17.6507 70.4073 17.864C70.0659 18.056 69.7566 18.3227 69.4792 18.664C69.2019 18.984 68.9459 19.3893 68.7113 19.88V18.056C68.9886 16.9467 69.3299 15.9653 69.7353 15.112C70.1619 14.2587 70.6846 13.5973 71.3033 13.128C71.9219 12.6373 72.7113 12.392 73.6713 12.392C73.9273 12.392 74.1619 12.4133 74.3753 12.456C74.5886 12.4773 74.7486 12.5093 74.8553 12.552ZM61.8313 29V27.048H61.8633C62.3539 27.048 62.7486 26.984 63.0473 26.856C63.3673 26.728 63.5273 26.472 63.5273 26.088V15.752C63.5273 15.5387 63.4739 15.368 63.3673 15.24C63.2819 15.112 63.1326 15.016 62.9193 14.952C62.7059 14.8667 62.4286 14.7813 62.0872 14.696L61.8313 14.632V12.584H68.9993V17.8L69.3833 17.416V26.472C69.3833 26.6427 69.5006 26.7707 69.7353 26.856C69.9699 26.9413 70.2473 26.9947 70.5673 27.016C70.8873 27.0373 71.1753 27.048 71.4313 27.048H71.7193V29H61.8313ZM94.8355 15.912C94.0248 15.7627 93.2995 15.6667 92.6595 15.624C92.0195 15.56 91.4542 15.5387 90.9635 15.56C90.4728 15.5813 90.0675 15.688 89.7475 15.88L89.1395 15.656C89.4808 15.016 89.8435 14.4507 90.2275 13.96C90.6115 13.448 91.0275 13.032 91.4755 12.712C91.9448 12.392 92.4568 12.168 93.0115 12.04C93.5662 11.8907 94.1742 11.8587 94.8355 11.944V15.912ZM84.4355 23.816C82.9208 23.816 81.5875 23.592 80.4355 23.144C79.3048 22.6747 78.4195 22.0133 77.7795 21.16C77.1395 20.3067 76.8195 19.2933 76.8195 18.12C76.8195 16.9253 77.1395 15.9013 77.7795 15.048C78.4195 14.1733 79.3155 13.4907 80.4675 13C81.6195 12.5093 82.9422 12.264 84.4355 12.264C85.9502 12.264 87.2835 12.5093 88.4355 13C89.5875 13.4907 90.4835 14.1733 91.1235 15.048C91.7848 15.9013 92.1155 16.9253 92.1155 18.12C92.1155 19.2933 91.7848 20.3067 91.1235 21.16C90.4835 22.0133 89.5875 22.6747 88.4355 23.144C87.2835 23.592 85.9502 23.816 84.4355 23.816ZM84.4355 21.672C84.9262 21.672 85.3422 21.5547 85.6835 21.32C86.0248 21.064 86.2808 20.68 86.4515 20.168C86.6222 19.6347 86.7075 18.9627 86.7075 18.152C86.7075 17.32 86.6222 16.6373 86.4515 16.104C86.2808 15.5707 86.0248 15.176 85.6835 14.92C85.3422 14.664 84.9262 14.536 84.4355 14.536C83.9875 14.536 83.5928 14.664 83.2515 14.92C82.9102 15.176 82.6435 15.5707 82.4515 16.104C82.2808 16.6373 82.1955 17.32 82.1955 18.152C82.1955 18.9627 82.2808 19.6347 82.4515 20.168C82.6435 20.68 82.8995 21.064 83.2195 21.32C83.5608 21.5547 83.9662 21.672 84.4355 21.672ZM83.3475 36.584C81.7262 36.584 80.2968 36.456 79.0595 36.2C77.8435 35.9653 76.8835 35.5707 76.1795 35.016C75.4968 34.4613 75.1555 33.7253 75.1555 32.808C75.1555 32.2747 75.3155 31.8053 75.6355 31.4C75.9555 30.9947 76.4675 30.632 77.1715 30.312C77.8968 30.0133 78.8462 29.736 80.0195 29.48L81.2035 30.376C80.7768 30.568 80.4248 30.7707 80.1475 30.984C79.8915 31.1973 79.6995 31.4213 79.5715 31.656C79.4648 31.8907 79.4115 32.1573 79.4115 32.456C79.4115 32.8613 79.5608 33.2027 79.8595 33.48C80.1795 33.7573 80.6702 33.96 81.3315 34.088C81.9928 34.2373 82.8568 34.312 83.9235 34.312H84.8515C85.9182 34.312 86.8142 34.216 87.5395 34.024C88.2862 33.832 88.8408 33.5653 89.2035 33.224C89.5875 32.8827 89.7795 32.488 89.7795 32.04C89.7795 31.656 89.6302 31.368 89.3315 31.176C89.0542 30.984 88.5208 30.888 87.7315 30.888H79.5395L79.3795 30.408C78.6755 30.1307 78.0782 29.8213 77.5875 29.48C77.1182 29.1387 76.7662 28.7333 76.5315 28.264C76.3182 27.7947 76.2115 27.2613 76.2115 26.664C76.2115 26.0027 76.3822 25.4053 76.7235 24.872C77.0862 24.3387 77.6088 23.8587 78.2915 23.432C78.9742 22.984 79.8062 22.6 80.7875 22.28L82.5475 23.08C82.0995 23.2507 81.7048 23.432 81.3635 23.624C81.0435 23.816 80.7982 24.0293 80.6275 24.264C80.4782 24.4773 80.4035 24.7227 80.4035 25C80.4035 25.384 80.5635 25.6613 80.8835 25.832C81.2248 26.0027 81.7475 26.088 82.4515 26.088H87.9875C89.4168 26.088 90.6115 26.248 91.5715 26.568C92.5315 26.888 93.2568 27.3787 93.7475 28.04C94.2595 28.68 94.5155 29.4907 94.5155 30.472C94.5155 31.8587 94.0995 33 93.2675 33.896C92.4568 34.792 91.3368 35.464 89.9075 35.912C88.4782 36.36 86.8568 36.584 85.0435 36.584H83.3475ZM107.404 25.384L105.74 28.552L104.236 30.728L97.548 15.656C97.42 15.3573 97.2813 15.1333 97.132 14.984C96.9827 14.8133 96.8013 14.696 96.588 14.632C96.3747 14.568 96.0973 14.536 95.756 14.536H95.724V12.584H105.292V14.536H105.228C104.908 14.536 104.588 14.5467 104.268 14.568C103.948 14.5893 103.681 14.6213 103.468 14.664C103.276 14.6853 103.18 14.7387 103.18 14.824L107.404 25.384ZM107.212 28.456C106.593 29.8853 105.975 31.1013 105.356 32.104C104.759 33.128 104.151 33.96 103.532 34.6C102.935 35.24 102.295 35.7093 101.612 36.008C100.951 36.328 100.225 36.488 99.436 36.488C98.8173 36.488 98.284 36.4133 97.836 36.264C97.4093 36.1147 97.0787 35.9547 96.844 35.784V31.592C96.9507 31.6133 97.1533 31.688 97.452 31.816C97.772 31.944 98.156 32.072 98.604 32.2C99.052 32.328 99.5213 32.392 100.012 32.392C100.524 32.392 100.983 32.328 101.388 32.2C101.815 32.072 102.22 31.8587 102.604 31.56C102.988 31.2613 103.361 30.8347 103.724 30.28C104.087 29.7467 104.428 29.0747 104.748 28.264L105.452 26.696L110.38 15.24C110.38 15.0907 110.284 14.9733 110.092 14.888C109.921 14.7813 109.676 14.696 109.356 14.632C109.057 14.568 108.748 14.536 108.428 14.536H108.332V12.584H114.54V14.536H114.508C114.231 14.536 113.985 14.5787 113.772 14.664C113.559 14.7493 113.356 14.8987 113.164 15.112C112.972 15.3253 112.801 15.6133 112.652 15.976L107.212 28.456ZM124.158 8.712V25.768C124.158 26.0453 124.222 26.2693 124.35 26.44C124.478 26.5893 124.649 26.696 124.862 26.76C125.097 26.824 125.353 26.8667 125.63 26.888C125.907 26.9093 126.174 26.92 126.43 26.92H126.974V29H115.742V26.92H116.062C116.617 26.92 117.075 26.8453 117.438 26.696C117.801 26.5467 117.982 26.2373 117.982 25.768V9.512C117.982 9.04267 117.801 8.73333 117.438 8.584C117.075 8.43467 116.617 8.36 116.062 8.36H115.742V6.28H133.502V12.712H130.878L130.622 10.088C130.579 9.704 130.43 9.416 130.174 9.224C129.918 9.01067 129.555 8.872 129.086 8.808C128.617 8.744 128.03 8.712 127.326 8.712H124.158ZM123.262 16.52C124.137 16.4773 124.99 16.4347 125.822 16.392C126.654 16.3493 127.475 16.3067 128.286 16.264C129.118 16.2 129.95 16.1467 130.782 16.104V19.08C129.95 19.016 129.118 18.9627 128.286 18.92C127.454 18.856 126.622 18.8027 125.79 18.76C124.979 18.7173 124.137 18.6747 123.262 18.632V16.52ZM140 10.344C139.04 10.344 138.272 10.12 137.696 9.672C137.142 9.20267 136.864 8.552 136.864 7.72C136.864 6.888 137.142 6.248 137.696 5.8C138.272 5.33067 139.04 5.096 140 5.096C140.982 5.096 141.75 5.33067 142.304 5.8C142.88 6.248 143.168 6.888 143.168 7.72C143.168 8.552 142.88 9.20267 142.304 9.672C141.75 10.12 140.982 10.344 140 10.344ZM143.008 12.584V26.088C143.008 26.472 143.168 26.728 143.488 26.856C143.83 26.984 144.235 27.048 144.704 27.048H144.736V29H135.456V27.048H135.488C135.979 27.048 136.384 26.984 136.704 26.856C137.024 26.728 137.184 26.472 137.184 26.088V15.752C137.184 15.4107 137.067 15.176 136.832 15.048C136.598 14.92 136.224 14.8027 135.712 14.696L135.456 14.632V12.584H143.008ZM145.409 14.856V12.744H145.505C145.975 12.744 146.38 12.712 146.721 12.648C147.063 12.5627 147.329 12.424 147.521 12.232C147.713 12.0187 147.809 11.7307 147.809 11.368L151.009 12.584H157.537V14.856H145.409ZM153.409 23.4C153.409 24.232 153.495 24.8933 153.665 25.384C153.857 25.8533 154.124 26.1947 154.465 26.408C154.807 26.6 155.223 26.696 155.713 26.696C156.119 26.696 156.503 26.6533 156.865 26.568C157.228 26.4613 157.505 26.3867 157.697 26.344V28.744C157.527 28.8293 157.271 28.9147 156.929 29C156.588 29.0853 156.193 29.16 155.745 29.224C155.297 29.288 154.785 29.32 154.209 29.32C152.951 29.32 151.82 29.1387 150.817 28.776C149.815 28.4133 149.015 27.8053 148.417 26.952C147.841 26.0987 147.553 24.936 147.553 23.464V13.192L147.809 12.936L147.841 8.136H153.409V23.4ZM188.554 20.744V25.672C188.234 26.0773 187.765 26.504 187.146 26.952C186.549 27.3787 185.834 27.7733 185.002 28.136C184.191 28.4773 183.285 28.7653 182.282 29C181.301 29.2133 180.266 29.32 179.178 29.32C177.407 29.32 175.797 29.0427 174.346 28.488C172.917 27.9333 171.679 27.144 170.634 26.12C169.589 25.096 168.778 23.8693 168.202 22.44C167.647 21.0107 167.37 19.4107 167.37 17.64C167.37 15.9333 167.658 14.3653 168.234 12.936C168.831 11.5067 169.653 10.2693 170.698 9.224C171.743 8.17867 172.959 7.37867 174.346 6.824C175.754 6.248 177.269 5.96 178.89 5.96C180.426 5.96 181.706 6.216 182.73 6.728C183.754 7.24 184.575 7.944 185.194 8.84C185.834 9.736 186.335 10.76 186.698 11.912L185.002 11.592L185.61 6.28H188.138V13.416H185.226C184.927 12.456 184.533 11.6133 184.042 10.888C183.551 10.1413 182.943 9.56533 182.218 9.16C181.514 8.75467 180.65 8.552 179.626 8.552C178.73 8.552 177.919 8.76533 177.194 9.192C176.49 9.61867 175.882 10.2267 175.37 11.016C174.879 11.8053 174.495 12.7653 174.218 13.896C173.962 15.0053 173.834 16.2533 173.834 17.64C173.834 19.1333 173.962 20.456 174.218 21.608C174.474 22.7387 174.847 23.688 175.338 24.456C175.85 25.2027 176.458 25.768 177.162 26.152C177.866 26.536 178.645 26.728 179.498 26.728C180.138 26.728 180.682 26.6533 181.13 26.504C181.578 26.3547 181.951 26.184 182.25 25.992C182.549 25.7787 182.783 25.5867 182.954 25.416V20.744C182.954 20.2747 182.773 19.9653 182.41 19.816C182.069 19.6667 181.61 19.592 181.034 19.592H180.714V17.512H190.346V19.592H190.154C189.706 19.592 189.322 19.6667 189.002 19.816C188.703 19.9653 188.554 20.2747 188.554 20.744ZM202.904 25.384L201.24 28.552L199.736 30.728L193.048 15.656C192.92 15.3573 192.781 15.1333 192.632 14.984C192.483 14.8133 192.301 14.696 192.088 14.632C191.875 14.568 191.597 14.536 191.256 14.536H191.224V12.584H200.792V14.536H200.728C200.408 14.536 200.088 14.5467 199.768 14.568C199.448 14.5893 199.181 14.6213 198.968 14.664C198.776 14.6853 198.68 14.7387 198.68 14.824L202.904 25.384ZM202.712 28.456C202.093 29.8853 201.475 31.1013 200.856 32.104C200.259 33.128 199.651 33.96 199.032 34.6C198.435 35.24 197.795 35.7093 197.112 36.008C196.451 36.328 195.725 36.488 194.936 36.488C194.317 36.488 193.784 36.4133 193.336 36.264C192.909 36.1147 192.579 35.9547 192.344 35.784V31.592C192.451 31.6133 192.653 31.688 192.952 31.816C193.272 31.944 193.656 32.072 194.104 32.2C194.552 32.328 195.021 32.392 195.512 32.392C196.024 32.392 196.483 32.328 196.888 32.2C197.315 32.072 197.72 31.8587 198.104 31.56C198.488 31.2613 198.861 30.8347 199.224 30.28C199.587 29.7467 199.928 29.0747 200.248 28.264L200.952 26.696L205.88 15.24C205.88 15.0907 205.784 14.9733 205.592 14.888C205.421 14.7813 205.176 14.696 204.856 14.632C204.557 14.568 204.248 14.536 203.928 14.536H203.832V12.584H210.04V14.536H210.008C209.731 14.536 209.485 14.5787 209.272 14.664C209.059 14.7493 208.856 14.8987 208.664 15.112C208.472 15.3253 208.301 15.6133 208.152 15.976L202.712 28.456ZM211.05 29V27.048H211.082C211.573 27.048 211.967 26.984 212.266 26.856C212.586 26.728 212.746 26.472 212.746 26.088V15.752C212.746 15.5387 212.693 15.368 212.586 15.24C212.501 15.112 212.351 15.016 212.138 14.952C211.925 14.8667 211.647 14.7813 211.306 14.696L211.05 14.632V12.584H218.218V16.232L218.602 16.136V26.76C218.602 26.824 218.666 26.888 218.794 26.952C218.943 26.9947 219.103 27.0267 219.274 27.048C219.466 27.048 219.647 27.048 219.818 27.048H219.914V29H211.05ZM230.026 29H221.546V27.048H221.578C221.77 27.048 221.962 27.048 222.154 27.048C222.346 27.0267 222.506 26.9947 222.634 26.952C222.783 26.888 222.858 26.824 222.858 26.76V17.768C222.858 17.2347 222.815 16.7973 222.73 16.456C222.645 16.0933 222.495 15.8267 222.282 15.656C222.09 15.4853 221.802 15.4 221.418 15.4C221.013 15.4 220.618 15.528 220.234 15.784C219.85 16.0187 219.466 16.4027 219.082 16.936C218.719 17.4693 218.346 18.1733 217.962 19.048L217.898 16.168C218.346 15.336 218.847 14.632 219.402 14.056C219.957 13.48 220.586 13.0427 221.29 12.744C222.015 12.424 222.805 12.264 223.658 12.264C224.661 12.264 225.546 12.4773 226.314 12.904C227.082 13.3093 227.669 13.928 228.074 14.76C228.501 15.5707 228.714 16.584 228.714 17.8V26.728C228.714 26.8133 228.778 26.888 228.906 26.952C229.055 26.9947 229.226 27.0267 229.418 27.048C229.631 27.048 229.823 27.048 229.994 27.048H230.026V29ZM240.586 29H231.69V27.048H231.754C231.925 27.048 232.106 27.0373 232.298 27.016C232.49 26.9947 232.65 26.9627 232.778 26.92C232.927 26.8773 233.002 26.824 233.002 26.76V17.768C233.002 17.2347 232.949 16.7973 232.842 16.456C232.757 16.0933 232.607 15.8267 232.394 15.656C232.202 15.4853 231.914 15.4 231.53 15.4C231.103 15.4 230.698 15.5387 230.314 15.816C229.93 16.072 229.557 16.4667 229.194 17C228.831 17.512 228.458 18.1733 228.074 18.984L228.01 16.168C228.458 15.336 228.959 14.632 229.514 14.056C230.09 13.48 230.73 13.0427 231.434 12.744C232.138 12.424 232.917 12.264 233.77 12.264C234.773 12.264 235.658 12.4773 236.426 12.904C237.194 13.3093 237.781 13.928 238.186 14.76C238.613 15.5707 238.826 16.584 238.826 17.8V26.088C238.826 26.472 238.986 26.728 239.306 26.856C239.626 26.984 240.021 27.048 240.49 27.048H240.586V29Z" fill="#5D0000"/>
<path d="M261 9.5H258C257.448 9.5 257 9.94772 257 10.5V26.5C257 27.0523 257.448 27.5 258 27.5H261C261.552 27.5 262 27.0523 262 26.5V10.5C262 9.94772 261.552 9.5 261 9.5Z" stroke="#FF6B66" stroke-width="2" stroke-linecap="round" stroke-linejoin="round"/>
<path d="M274 9.5H271C270.448 9.5 270 9.94772 270 10.5V26.5C270 27.0523 270.448 27.5 271 27.5H274C274.552 27.5 275 27.0523 275 26.5V10.5C275 9.94772 274.552 9.5 274 9.5Z" stroke="#FF6B66" stroke-width="2" stroke-linecap="round" stroke-linejoin="round"/>
<path d="M275 12.5H278C278.265 12.5 278.52 12.6054 278.707 12.7929C278.895 12.9804 279 13.2348 279 13.5V23.5C279 23.7652 278.895 24.0196 278.707 24.2071C278.52 24.3946 278.265 24.5 278 24.5H275" stroke="#FF6B66" stroke-width="2" stroke-linecap="round" stroke-linejoin="round"/>
<path d="M257 24.5H254C253.735 24.5 253.48 24.3946 253.293 24.2071C253.105 24.0196 253 23.7652 253 23.5V13.5C253 13.2348 253.105 12.9804 253.293 12.7929C253.48 12.6054 253.735 12.5 254 12.5H257" stroke="#FF6B66" stroke-width="2" stroke-linecap="round" stroke-linejoin="round"/>
<path d="M262 18.5H270" stroke="#FF6B66" stroke-width="2" stroke-linecap="round" stroke-linejoin="round"/>
<path d="M279 18.5H281" stroke="#FF6B66" stroke-width="2" stroke-linecap="round" stroke-linejoin="round"/>
<path d="M251 18.5H253" stroke="#FF6B66" stroke-width="2" stroke-linecap="round" stroke-linejoin="round"/>
</svg>
