<svg width="302" height="74" viewBox="0 0 302 74" fill="none" xmlns="http://www.w3.org/2000/svg">
<path d="M24.28 28V37H1.24V34.48H1.64C2.30667 34.48 2.86667 34.3867 3.32 34.2C3.77333 34.0133 4 33.6267 4 33.04V12.56C4 11.9733 3.77333 11.5867 3.32 11.4C2.86667 11.2133 2.30667 11.12 1.64 11.12H1.24V8.6H23.2V16.6H20.08L19.72 13.28C19.6667 12.8 19.48 12.44 19.16 12.2C18.84 11.9333 18.3733 11.76 17.76 11.68C17.1733 11.5733 16.4533 11.52 15.6 11.52H11.72V34.08H15.96C16.76 34.08 17.44 34.0533 18 34C18.5867 33.9467 19.0533 33.8533 19.4 33.72C19.7733 33.5867 20.0533 33.4133 20.24 33.2C20.4533 32.96 20.5733 32.6667 20.6 32.32L21.08 28H24.28ZM10.64 21.2C11.7067 21.12 12.7467 21.0533 13.76 21C14.7733 20.9467 15.7733 20.8933 16.76 20.84C17.7733 20.76 18.76 20.68 19.72 20.6V24.32C18.76 24.24 17.7733 24.1733 16.76 24.12C15.7733 24.04 14.7733 23.9733 13.76 23.92C12.7467 23.84 11.7067 23.7733 10.64 23.72V21.2ZM26.9366 37V34.64H27.0166C27.4166 34.64 27.7632 34.6133 28.0566 34.56C28.3766 34.48 28.6299 34.36 28.8166 34.2C29.0032 34.0133 29.0966 33.76 29.0966 33.44V20.36C29.0966 20.0667 29.0299 19.84 28.8966 19.68C28.7899 19.52 28.6032 19.4 28.3366 19.32C28.0699 19.2133 27.7232 19.1067 27.2966 19L26.9366 18.92V16.48H35.9366V20.88L36.4166 20.92V34.28C36.4166 34.36 36.5099 34.4267 36.6966 34.48C36.9099 34.5333 37.1499 34.5733 37.4166 34.6C37.7099 34.6267 37.9766 34.64 38.2166 34.64H38.3366V37H26.9366ZM52.1366 37H40.7766V34.64H40.8166C41.0566 34.64 41.3232 34.6267 41.6166 34.6C41.9099 34.5733 42.1499 34.5333 42.3366 34.48C42.5499 34.4267 42.6566 34.36 42.6566 34.28V22.84C42.6566 22.1733 42.5766 21.6267 42.4166 21.2C42.2832 20.7733 42.0566 20.4533 41.7366 20.24C41.4166 20.0267 40.9899 19.92 40.4566 19.92C39.8166 19.92 39.2166 20.0933 38.6566 20.44C38.0966 20.7867 37.5632 21.3067 37.0566 22C36.5766 22.6933 36.0966 23.5467 35.6166 24.56L35.5366 21.04C36.0432 20 36.6699 19.12 37.4166 18.4C38.1632 17.6533 39.0166 17.08 39.9766 16.68C40.9632 16.28 42.0299 16.08 43.1766 16.08C44.5632 16.08 45.7632 16.3467 46.7766 16.88C47.7899 17.3867 48.5766 18.1467 49.1366 19.16C49.6966 20.1733 49.9766 21.4533 49.9766 23V33.44C49.9766 33.76 50.0699 34.0133 50.2566 34.2C50.4432 34.36 50.6832 34.48 50.9766 34.56C51.2966 34.6133 51.6566 34.64 52.0566 34.64H52.1366V37ZM61.3734 26.84C61.3734 28.04 61.4801 29.1067 61.6934 30.04C61.9068 30.9733 62.2401 31.76 62.6934 32.4C63.1468 33.04 63.7068 33.52 64.3734 33.84C65.0668 34.16 65.8801 34.32 66.8134 34.32C67.7734 34.32 68.6001 34.1333 69.2934 33.76C69.9868 33.3867 70.5868 32.9067 71.0934 32.32C71.6001 31.7333 72.0268 31.1333 72.3734 30.52L74.7734 32.24C74.2668 33.2533 73.6001 34.1467 72.7734 34.92C71.9468 35.6933 70.9468 36.3067 69.7734 36.76C68.6268 37.1867 67.2534 37.4 65.6534 37.4C63.3334 37.4 61.2934 36.9733 59.5334 36.12C57.8001 35.2667 56.4534 34.04 55.4934 32.44C54.5334 30.84 54.0534 28.96 54.0534 26.8C54.0534 24.64 54.5201 22.76 55.4534 21.16C56.3868 19.56 57.6801 18.32 59.3334 17.44C60.9868 16.5333 62.8534 16.08 64.9334 16.08C66.6134 16.08 68.0801 16.3333 69.3334 16.84C70.5868 17.32 71.6401 18.0533 72.4934 19.04C73.3734 20 74.0401 21.2133 74.4934 22.68C74.9468 24.12 75.1734 25.8133 75.1734 27.76H60.2134V25.04H69.2534L68.3734 26.12C68.3468 24.76 68.2668 23.6267 68.1334 22.72C68.0001 21.7867 67.8001 21.0533 67.5334 20.52C67.2668 19.9867 66.9334 19.6133 66.5334 19.4C66.1334 19.16 65.6534 19.04 65.0934 19.04C64.5334 19.04 64.0268 19.1867 63.5734 19.48C63.1201 19.7733 62.7201 20.24 62.3734 20.88C62.0534 21.4933 61.8001 22.2933 61.6134 23.28C61.4534 24.2667 61.3734 25.4533 61.3734 26.84ZM93.53 16.4V22.6C93.3167 22.52 93.0767 22.4667 92.81 22.44C92.5433 22.3867 92.2633 22.3467 91.97 22.32C91.7033 22.2933 91.4233 22.28 91.13 22.28C90.5167 22.28 89.9433 22.3467 89.41 22.48C88.9033 22.5867 88.4233 22.76 87.97 23C87.5433 23.24 87.1567 23.5733 86.81 24C86.4633 24.4267 86.1433 24.9333 85.85 25.52L85.81 23.32C86.1833 21.9333 86.6233 20.7067 87.13 19.64C87.6633 18.5733 88.3167 17.7333 89.09 17.12C89.8633 16.5067 90.8367 16.2 92.01 16.2C92.3567 16.2 92.6633 16.2267 92.93 16.28C93.1967 16.3067 93.3967 16.3467 93.53 16.4ZM77.21 37V34.64H77.29C77.8767 34.64 78.37 34.56 78.77 34.4C79.17 34.24 79.37 33.92 79.37 33.44V20.36C79.37 20.0667 79.3033 19.84 79.17 19.68C79.0633 19.52 78.8767 19.4 78.61 19.32C78.3433 19.2133 77.9967 19.1067 77.57 19L77.21 18.92V16.48H86.21V23L86.69 22.52V33.96C86.69 34.1467 86.8233 34.2933 87.09 34.4C87.3833 34.5067 87.73 34.5733 88.13 34.6C88.53 34.6267 88.9033 34.64 89.25 34.64H89.61V37H77.21ZM118.427 20.56C117.441 20.3733 116.534 20.2533 115.707 20.2C114.907 20.12 114.201 20.1067 113.587 20.16C113.001 20.1867 112.507 20.3067 112.107 20.52L111.387 20.24C111.814 19.44 112.254 18.7333 112.707 18.12C113.187 17.5067 113.707 17 114.267 16.6C114.854 16.2 115.494 15.92 116.187 15.76C116.881 15.6 117.627 15.5733 118.427 15.68V20.56ZM105.427 30.52C103.534 30.52 101.867 30.24 100.427 29.68C99.0139 29.0933 97.9072 28.2667 97.1072 27.2C96.3339 26.1067 95.9472 24.8267 95.9472 23.36C95.9472 21.8667 96.3472 20.5867 97.1472 19.52C97.9472 18.4267 99.0539 17.5867 100.467 17C101.907 16.3867 103.561 16.08 105.427 16.08C107.321 16.08 108.987 16.3867 110.427 17C111.867 17.5867 112.987 18.4267 113.787 19.52C114.614 20.5867 115.027 21.8667 115.027 23.36C115.027 24.8267 114.614 26.1067 113.787 27.2C112.987 28.2667 111.867 29.0933 110.427 29.68C108.987 30.24 107.321 30.52 105.427 30.52ZM105.427 27.88C106.041 27.88 106.561 27.7333 106.987 27.44C107.414 27.12 107.734 26.64 107.947 26C108.187 25.3333 108.307 24.4667 108.307 23.4C108.307 22.36 108.187 21.5067 107.947 20.84C107.734 20.1467 107.414 19.64 106.987 19.32C106.561 18.9733 106.041 18.8 105.427 18.8C104.867 18.8 104.374 18.9733 103.947 19.32C103.521 19.64 103.187 20.1467 102.947 20.84C102.734 21.5067 102.627 22.36 102.627 23.4C102.627 24.44 102.734 25.2933 102.947 25.96C103.187 26.6267 103.521 27.12 103.947 27.44C104.374 27.7333 104.867 27.88 105.427 27.88ZM104.107 46.48C102.081 46.48 100.294 46.32 98.7472 46C97.2272 45.7067 96.0272 45.2133 95.1472 44.52C94.2672 43.8533 93.8272 42.9467 93.8272 41.8C93.8272 41.1067 94.0272 40.5067 94.4272 40C94.8539 39.4933 95.5072 39.04 96.3872 38.64C97.2939 38.2667 98.4805 37.92 99.9472 37.6L101.347 38.72C100.814 38.9333 100.374 39.1733 100.027 39.44C99.7072 39.7333 99.4672 40.0267 99.3072 40.32C99.1739 40.64 99.1072 40.9867 99.1072 41.36C99.1072 41.8667 99.2939 42.2933 99.6672 42.64C100.067 43.0133 100.681 43.2933 101.507 43.48C102.361 43.6667 103.454 43.76 104.787 43.76H105.947C107.307 43.76 108.454 43.6267 109.387 43.36C110.321 43.12 111.014 42.7733 111.467 42.32C111.947 41.8933 112.187 41.4 112.187 40.84C112.187 40.3333 112.001 39.96 111.627 39.72C111.254 39.48 110.574 39.36 109.587 39.36H99.3072L99.1072 38.76C98.2272 38.4133 97.4939 38.0267 96.9072 37.6C96.3205 37.1733 95.8805 36.6667 95.5872 36.08C95.3205 35.4933 95.1872 34.8267 95.1872 34.08C95.1872 33.2533 95.4005 32.5067 95.8272 31.84C96.2539 31.1733 96.8939 30.5733 97.7472 30.04C98.6005 29.48 99.6405 29 100.867 28.6L103.027 29.56C102.441 29.7733 101.947 30.0133 101.547 30.28C101.147 30.52 100.841 30.7867 100.627 31.08C100.441 31.3467 100.347 31.6533 100.347 32C100.347 32.48 100.547 32.8267 100.947 33.04C101.374 33.2533 102.014 33.36 102.867 33.36H109.867C111.654 33.36 113.147 33.56 114.347 33.96C115.547 34.36 116.454 34.9733 117.067 35.8C117.707 36.6 118.027 37.6267 118.027 38.88C118.027 40.5867 117.507 42 116.467 43.12C115.454 44.24 114.054 45.08 112.267 45.64C110.481 46.2 108.454 46.48 106.187 46.48H104.107ZM134.217 32.48L132.137 36.4L130.257 39.2L121.817 20.2C121.684 19.8267 121.524 19.5467 121.337 19.36C121.15 19.1733 120.924 19.04 120.657 18.96C120.39 18.88 120.057 18.84 119.657 18.84H119.577V16.48H131.497V18.84H131.457C131.03 18.84 130.617 18.8533 130.217 18.88C129.844 18.9067 129.524 18.9467 129.257 19C128.99 19.0267 128.857 19.0933 128.857 19.2L134.217 32.48ZM133.857 36.4C133.11 38.16 132.35 39.6667 131.577 40.92C130.83 42.2 130.07 43.2267 129.297 44C128.55 44.8 127.764 45.3867 126.937 45.76C126.11 46.1333 125.204 46.32 124.217 46.32C123.47 46.32 122.817 46.24 122.257 46.08C121.724 45.92 121.31 45.7333 121.017 45.52V40.28C121.124 40.3067 121.364 40.4 121.737 40.56C122.137 40.72 122.617 40.8667 123.177 41C123.737 41.16 124.337 41.24 124.977 41.24C125.59 41.24 126.164 41.16 126.697 41C127.23 40.8667 127.737 40.6133 128.217 40.24C128.697 39.8667 129.164 39.3333 129.617 38.64C130.07 37.9733 130.497 37.1333 130.897 36.12L131.777 34.12L137.937 19.72C137.937 19.5333 137.817 19.3867 137.577 19.28C137.364 19.1467 137.07 19.04 136.697 18.96C136.324 18.88 135.937 18.84 135.537 18.84H135.417V16.48H143.057V18.84H143.017C142.67 18.84 142.364 18.8933 142.097 19C141.83 19.1067 141.577 19.2933 141.337 19.56C141.097 19.8267 140.884 20.1867 140.697 20.64L133.857 36.4ZM155.04 11.52V33.08C155.04 33.4 155.12 33.6667 155.28 33.88C155.467 34.0667 155.694 34.2 155.96 34.28C156.254 34.36 156.56 34.4133 156.88 34.44C157.227 34.4667 157.56 34.48 157.88 34.48H158.56V37H144.56V34.48H144.96C145.627 34.48 146.187 34.3867 146.64 34.2C147.094 34.0133 147.32 33.6267 147.32 33.04V12.56C147.32 11.9733 147.094 11.5867 146.64 11.4C146.187 11.2133 145.627 11.12 144.96 11.12H144.56V8.6H166.72V16.6H163.56L163.2 13.28C163.147 12.8 162.96 12.44 162.64 12.2C162.32 11.9333 161.867 11.76 161.28 11.68C160.694 11.5733 159.974 11.52 159.12 11.52H155.04ZM153.96 21.44C155.08 21.3867 156.16 21.3333 157.2 21.28C158.24 21.2267 159.267 21.16 160.28 21.08C161.32 21 162.347 20.9333 163.36 20.88V24.6C162.347 24.4933 161.32 24.4133 160.28 24.36C159.267 24.28 158.227 24.2133 157.16 24.16C156.12 24.08 155.054 24.0267 153.96 24V21.44ZM174.883 13.64C173.683 13.64 172.723 13.36 172.003 12.8C171.283 12.2133 170.923 11.4 170.923 10.36C170.923 9.32 171.283 8.52 172.003 7.96C172.723 7.37333 173.683 7.08 174.883 7.08C176.11 7.08 177.07 7.37333 177.763 7.96C178.483 8.52 178.843 9.32 178.843 10.36C178.843 11.4 178.483 12.2133 177.763 12.8C177.07 13.36 176.11 13.64 174.883 13.64ZM178.643 16.48V33.44C178.643 33.92 178.843 34.24 179.243 34.4C179.67 34.56 180.176 34.64 180.763 34.64H180.803V37H169.203V34.64H169.243C169.856 34.64 170.35 34.56 170.723 34.4C171.123 34.24 171.323 33.92 171.323 33.44V20.36C171.323 19.9333 171.176 19.64 170.883 19.48C170.616 19.2933 170.163 19.1333 169.523 19L169.163 18.92V16.48H178.643ZM181.605 19.2V16.68H181.725C182.312 16.68 182.819 16.6267 183.245 16.52C183.672 16.4133 184.005 16.24 184.245 16C184.512 15.7333 184.645 15.3733 184.645 14.92L188.445 16.48H196.725V19.2H181.605ZM191.605 30.12C191.605 31.16 191.712 31.9733 191.925 32.56C192.165 33.1467 192.499 33.5733 192.925 33.84C193.352 34.08 193.872 34.2 194.485 34.2C194.992 34.2 195.472 34.1467 195.925 34.04C196.379 33.9067 196.712 33.8133 196.925 33.76V36.68C196.712 36.7867 196.392 36.8933 195.965 37C195.565 37.1067 195.072 37.2 194.485 37.28C193.925 37.36 193.285 37.4 192.565 37.4C190.992 37.4 189.579 37.1733 188.325 36.72C187.099 36.2667 186.112 35.5067 185.365 34.44C184.645 33.3733 184.285 31.9333 184.285 30.12V17.2L184.605 16.88L184.725 10.92H191.605V30.12ZM235.458 26.6V32.84C235.058 33.3467 234.471 33.88 233.698 34.44C232.951 34.9733 232.058 35.4667 231.018 35.92C230.005 36.3467 228.871 36.7067 227.618 37C226.391 37.2667 225.098 37.4 223.738 37.4C221.525 37.4 219.511 37.0533 217.698 36.36C215.911 35.6667 214.365 34.68 213.058 33.4C211.751 32.12 210.738 30.5867 210.018 28.8C209.325 27.0133 208.978 25.0133 208.978 22.8C208.978 20.6667 209.338 18.7067 210.058 16.92C210.805 15.1333 211.831 13.5867 213.138 12.28C214.445 10.9733 215.965 9.97333 217.698 9.28C219.458 8.56 221.351 8.2 223.378 8.2C225.298 8.2 226.898 8.52 228.178 9.16C229.485 9.8 230.525 10.68 231.298 11.8C232.098 12.8933 232.711 14.16 233.138 15.6L231.098 15.12L231.818 8.6H234.898V17.48H231.378C231.005 16.2533 230.511 15.1867 229.898 14.28C229.285 13.3733 228.525 12.6667 227.618 12.16C226.711 11.6267 225.605 11.36 224.298 11.36C223.178 11.36 222.165 11.6267 221.258 12.16C220.378 12.6933 219.618 13.4533 218.978 14.44C218.365 15.4267 217.885 16.6267 217.538 18.04C217.218 19.4533 217.058 21.04 217.058 22.8C217.058 24.6933 217.218 26.36 217.538 27.8C217.858 29.24 218.325 30.44 218.938 31.4C219.578 32.3333 220.338 33.0533 221.218 33.56C222.098 34.04 223.085 34.28 224.178 34.28C224.951 34.28 225.605 34.1867 226.138 34C226.698 33.8133 227.165 33.5867 227.538 33.32C227.938 33.0533 228.245 32.8267 228.458 32.64V26.6C228.458 26.0133 228.231 25.6267 227.778 25.44C227.325 25.2533 226.738 25.16 226.018 25.16H225.658V22.64H237.658V25.16H237.418C236.885 25.16 236.418 25.2533 236.018 25.44C235.645 25.6267 235.458 26.0133 235.458 26.6ZM253.397 32.48L251.317 36.4L249.437 39.2L240.997 20.2C240.863 19.8267 240.703 19.5467 240.517 19.36C240.33 19.1733 240.103 19.04 239.837 18.96C239.57 18.88 239.237 18.84 238.837 18.84H238.757V16.48H250.677V18.84H250.637C250.21 18.84 249.797 18.8533 249.397 18.88C249.023 18.9067 248.703 18.9467 248.437 19C248.17 19.0267 248.037 19.0933 248.037 19.2L253.397 32.48ZM253.037 36.4C252.29 38.16 251.53 39.6667 250.757 40.92C250.01 42.2 249.25 43.2267 248.477 44C247.73 44.8 246.943 45.3867 246.117 45.76C245.29 46.1333 244.383 46.32 243.397 46.32C242.65 46.32 241.997 46.24 241.437 46.08C240.903 45.92 240.49 45.7333 240.197 45.52V40.28C240.303 40.3067 240.543 40.4 240.917 40.56C241.317 40.72 241.797 40.8667 242.357 41C242.917 41.16 243.517 41.24 244.157 41.24C244.77 41.24 245.343 41.16 245.877 41C246.41 40.8667 246.917 40.6133 247.397 40.24C247.877 39.8667 248.343 39.3333 248.797 38.64C249.25 37.9733 249.677 37.1333 250.077 36.12L250.957 34.12L257.117 19.72C257.117 19.5333 256.997 19.3867 256.757 19.28C256.543 19.1467 256.25 19.04 255.877 18.96C255.503 18.88 255.117 18.84 254.717 18.84H254.597V16.48H262.237V18.84H262.197C261.85 18.84 261.543 18.8933 261.277 19C261.01 19.1067 260.757 19.2933 260.517 19.56C260.277 19.8267 260.063 20.1867 259.877 20.64L253.037 36.4ZM263.46 37V34.64H263.54C264.127 34.64 264.62 34.56 265.02 34.4C265.42 34.24 265.62 33.92 265.62 33.44V20.36C265.62 20.0667 265.553 19.84 265.42 19.68C265.313 19.52 265.127 19.4 264.86 19.32C264.593 19.2133 264.247 19.1067 263.82 19L263.46 18.92V16.48H272.46V21L272.94 20.88V34.28C272.94 34.36 273.02 34.4267 273.18 34.48C273.367 34.5333 273.567 34.5733 273.78 34.6C274.02 34.6267 274.247 34.64 274.46 34.64H274.54V37H263.46ZM287.22 37H276.62V34.64H276.66C276.9 34.64 277.14 34.6267 277.38 34.6C277.62 34.5733 277.82 34.5333 277.98 34.48C278.167 34.4267 278.26 34.36 278.26 34.28V22.88C278.26 22.2133 278.207 21.6667 278.1 21.24C277.993 20.7867 277.807 20.4533 277.54 20.24C277.3 20.0267 276.94 19.92 276.46 19.92C275.953 19.92 275.447 20.0667 274.94 20.36C274.46 20.6533 273.993 21.1333 273.54 21.8C273.087 22.4667 272.62 23.3467 272.14 24.44L272.06 20.96C272.593 19.92 273.207 19.04 273.9 18.32C274.62 17.6 275.42 17.0533 276.3 16.68C277.18 16.28 278.167 16.08 279.26 16.08C280.513 16.08 281.62 16.3467 282.58 16.88C283.54 17.3867 284.273 18.1467 284.78 19.16C285.313 20.1733 285.58 21.4533 285.58 23V34.24C285.58 34.32 285.66 34.4 285.82 34.48C286.007 34.5333 286.22 34.5733 286.46 34.6C286.727 34.6267 286.967 34.64 287.18 34.64H287.22V37ZM300.42 37H289.3V34.64H289.38C289.593 34.64 289.82 34.6267 290.06 34.6C290.3 34.5733 290.5 34.5333 290.66 34.48C290.847 34.4267 290.94 34.36 290.94 34.28V22.88C290.94 22.2133 290.873 21.6667 290.74 21.24C290.633 20.7867 290.447 20.4533 290.18 20.24C289.94 20.0267 289.58 19.92 289.1 19.92C288.567 19.92 288.06 20.08 287.58 20.4C287.1 20.72 286.633 21.2133 286.18 21.88C285.727 22.52 285.26 23.3467 284.78 24.36L284.7 20.96C285.26 19.92 285.887 19.04 286.58 18.32C287.3 17.5733 288.1 17.0133 288.98 16.64C289.86 16.2667 290.833 16.08 291.9 16.08C293.18 16.08 294.287 16.3467 295.22 16.88C296.18 17.3867 296.913 18.1467 297.42 19.16C297.953 20.1733 298.22 21.4533 298.22 23V33.44C298.22 33.92 298.42 34.24 298.82 34.4C299.22 34.56 299.713 34.64 300.3 34.64H300.42V37Z" fill="#5D0000"/>
<path d="M15.132 66.48V70H6.3V69.168H6.476C6.87067 69.168 7.196 69.1307 7.452 69.056C7.708 68.9813 7.836 68.8267 7.836 68.592V60.048C7.836 59.8133 7.708 59.6587 7.452 59.584C7.196 59.5093 6.87067 59.472 6.476 59.472H6.3V58.64H14.716V61.76H13.772L13.612 60.304C13.5907 60.112 13.5053 59.968 13.356 59.872C13.2173 59.7653 13.004 59.696 12.716 59.664C12.4387 59.6213 12.0707 59.6 11.612 59.6H9.308V69.04H11.996C12.3373 69.04 12.6307 69.0347 12.876 69.024C13.132 69.0027 13.34 68.9653 13.5 68.912C13.66 68.8587 13.7773 68.784 13.852 68.688C13.9373 68.592 13.9853 68.4747 13.996 68.336L14.172 66.48H15.132ZM8.908 63.744C9.37733 63.712 9.84667 63.6907 10.316 63.68C10.7853 63.6587 11.2547 63.6427 11.724 63.632C12.1933 63.6107 12.6573 63.5893 13.116 63.568V64.784C12.6573 64.7627 12.1933 64.7413 11.724 64.72C11.2547 64.6987 10.7853 64.6827 10.316 64.672C9.84667 64.6507 9.37733 64.6293 8.908 64.608V63.744ZM16.8119 70V69.248H16.8599C17.1265 69.248 17.3612 69.2267 17.5639 69.184C17.7665 69.1413 17.9212 69.0613 18.0279 68.944C18.1452 68.8267 18.2039 68.6667 18.2039 68.464V63.12C18.2039 62.96 18.1559 62.8427 18.0599 62.768C17.9745 62.6827 17.8412 62.6133 17.6599 62.56C17.4785 62.5067 17.2492 62.4533 16.9719 62.4L16.8119 62.368V61.568H19.4039L19.5319 63.344L19.6279 63.456V69.088C19.6279 69.12 19.6919 69.152 19.8199 69.184C19.9479 69.2053 20.1025 69.2213 20.2839 69.232C20.4652 69.2427 20.6305 69.248 20.7799 69.248H20.8279V70H16.8119ZM26.3959 70H22.3799V69.248H22.4279C22.5772 69.248 22.7425 69.2427 22.9239 69.232C23.1052 69.2213 23.2599 69.2053 23.3879 69.184C23.5265 69.152 23.5959 69.12 23.5959 69.088V64.048C23.5959 63.6853 23.5532 63.3867 23.4679 63.152C23.3825 62.9173 23.2385 62.7413 23.0359 62.624C22.8332 62.5067 22.5612 62.448 22.2199 62.448C21.8679 62.448 21.5265 62.5173 21.1959 62.656C20.8652 62.7947 20.5452 63.0027 20.2359 63.28C19.9372 63.5573 19.6385 63.904 19.3399 64.32V63.392C19.6385 62.9547 19.9479 62.592 20.2679 62.304C20.5985 62.0053 20.9505 61.7813 21.3239 61.632C21.6972 61.4827 22.1025 61.408 22.5399 61.408C23.0625 61.408 23.5052 61.4987 23.8679 61.68C24.2305 61.8507 24.5132 62.1227 24.7159 62.496C24.9185 62.8587 25.0199 63.3173 25.0199 63.872V68.464C25.0199 68.6667 25.0732 68.8267 25.1799 68.944C25.2972 69.0613 25.4519 69.1413 25.6439 69.184C25.8465 69.2267 26.0865 69.248 26.3639 69.248H26.3959V70ZM29.0205 65.856C29.0205 66.4427 29.0898 66.9493 29.2285 67.376C29.3778 67.8027 29.5805 68.1547 29.8365 68.432C30.0925 68.6987 30.3912 68.9013 30.7325 69.04C31.0738 69.168 31.4472 69.232 31.8525 69.232C32.2898 69.232 32.6685 69.152 32.9885 68.992C33.3192 68.8213 33.6018 68.6133 33.8365 68.368C34.0712 68.1227 34.2685 67.8667 34.4285 67.6L35.1965 68.24C34.9938 68.6027 34.7325 68.9333 34.4125 69.232C34.0925 69.5307 33.7138 69.7653 33.2765 69.936C32.8498 70.096 32.3645 70.176 31.8205 70.176C31.0205 70.176 30.2952 70.0053 29.6445 69.664C29.0045 69.3227 28.4978 68.8267 28.1245 68.176C27.7512 67.5253 27.5645 66.7467 27.5645 65.84C27.5645 64.9547 27.7352 64.1813 28.0765 63.52C28.4285 62.8587 28.9032 62.3413 29.5005 61.968C30.0978 61.5947 30.7752 61.408 31.5325 61.408C32.1405 61.408 32.6685 61.5093 33.1165 61.712C33.5752 61.904 33.9592 62.2027 34.2685 62.608C34.5778 63.0027 34.8125 63.4987 34.9725 64.096C35.1325 64.6827 35.2125 65.376 35.2125 66.176H28.7005V65.264H34.1565L33.7245 65.616C33.7032 65.0293 33.6445 64.5333 33.5485 64.128C33.4632 63.712 33.3352 63.376 33.1645 63.12C32.9938 62.8533 32.7698 62.6613 32.4925 62.544C32.2258 62.416 31.9058 62.352 31.5325 62.352C31.1698 62.352 30.8338 62.4267 30.5245 62.576C30.2152 62.7253 29.9485 62.9493 29.7245 63.248C29.5005 63.5467 29.3245 63.9147 29.1965 64.352C29.0792 64.7893 29.0205 65.2907 29.0205 65.856ZM42.4346 61.456V62.96C42.36 62.928 42.2693 62.9067 42.1626 62.896C42.056 62.8853 41.944 62.8747 41.8266 62.864C41.72 62.8533 41.6133 62.848 41.5066 62.848C41.2186 62.848 40.9573 62.88 40.7226 62.944C40.4986 63.008 40.2906 63.1093 40.0986 63.248C39.9173 63.376 39.7413 63.5467 39.5706 63.76C39.4106 63.9733 39.24 64.2293 39.0586 64.528V63.68C39.2826 63.2 39.528 62.7893 39.7946 62.448C40.072 62.1067 40.376 61.8453 40.7066 61.664C41.048 61.4827 41.4266 61.392 41.8426 61.392C41.9706 61.392 42.088 61.3973 42.1946 61.408C42.3013 61.4187 42.3813 61.4347 42.4346 61.456ZM36.5306 70V69.248H36.5786C36.984 69.248 37.3093 69.2 37.5546 69.104C37.8 68.9973 37.9226 68.784 37.9226 68.464V63.12C37.9226 62.96 37.8746 62.8427 37.7786 62.768C37.6933 62.6827 37.56 62.6133 37.3786 62.56C37.1973 62.5067 36.968 62.4533 36.6906 62.4L36.5306 62.368V61.568H39.1226L39.2506 63.776L39.3466 63.68V68.832C39.3466 68.9493 39.4213 69.04 39.5706 69.104C39.72 69.168 39.896 69.2107 40.0986 69.232C40.3013 69.2427 40.4773 69.248 40.6266 69.248H40.9626V70H36.5306ZM52.0844 62.592C51.6044 62.56 51.1937 62.5493 50.8524 62.56C50.511 62.56 50.223 62.592 49.9884 62.656C49.7537 62.7093 49.5617 62.8107 49.4124 62.96L49.1724 62.832C49.3217 62.5013 49.4924 62.2187 49.6844 61.984C49.8764 61.7493 50.0897 61.5573 50.3244 61.408C50.5697 61.2587 50.8364 61.1627 51.1244 61.12C51.4124 61.0667 51.7324 61.056 52.0844 61.088V62.592ZM47.1084 67.456C46.4577 67.456 45.8817 67.3333 45.3804 67.088C44.8897 66.8427 44.5004 66.496 44.2124 66.048C43.935 65.5893 43.7964 65.056 43.7964 64.448C43.7964 63.8507 43.935 63.3227 44.2124 62.864C44.5004 62.4053 44.895 62.048 45.3964 61.792C45.8977 61.536 46.4684 61.408 47.1084 61.408C47.759 61.408 48.335 61.536 48.8364 61.792C49.3377 62.048 49.727 62.4053 50.0044 62.864C50.2924 63.3227 50.4364 63.8507 50.4364 64.448C50.4364 65.056 50.2924 65.5893 50.0044 66.048C49.727 66.496 49.3377 66.8427 48.8364 67.088C48.335 67.3333 47.759 67.456 47.1084 67.456ZM47.1084 66.512C47.5137 66.512 47.8604 66.4373 48.1484 66.288C48.4364 66.128 48.655 65.8933 48.8044 65.584C48.9537 65.2747 49.0284 64.896 49.0284 64.448C49.0284 64 48.9537 63.6213 48.8044 63.312C48.655 62.992 48.4364 62.752 48.1484 62.592C47.8604 62.4213 47.5137 62.336 47.1084 62.336C46.7137 62.336 46.3724 62.4213 46.0844 62.592C45.7964 62.752 45.5777 62.992 45.4284 63.312C45.279 63.6213 45.2044 64 45.2044 64.448C45.2044 64.896 45.279 65.2747 45.4284 65.584C45.5777 65.8933 45.7964 66.128 46.0844 66.288C46.3724 66.4373 46.7137 66.512 47.1084 66.512ZM46.5484 73.856C45.855 73.856 45.231 73.792 44.6764 73.664C44.1217 73.536 43.6844 73.3173 43.3644 73.008C43.055 72.7093 42.9004 72.32 42.9004 71.84C42.9004 71.5413 42.9697 71.28 43.1084 71.056C43.247 70.832 43.455 70.6187 43.7324 70.416C44.0097 70.2133 44.367 70.0107 44.8044 69.808L45.3164 70.144C45.039 70.3147 44.815 70.48 44.6444 70.64C44.4844 70.8107 44.367 70.9813 44.2924 71.152C44.2177 71.3227 44.1804 71.504 44.1804 71.696C44.1804 71.952 44.2604 72.1653 44.4204 72.336C44.591 72.5173 44.8524 72.656 45.2044 72.752C45.5564 72.848 46.0204 72.896 46.5964 72.896H47.6844C48.239 72.896 48.719 72.832 49.1244 72.704C49.5297 72.576 49.8444 72.3893 50.0684 72.144C50.2924 71.8987 50.4044 71.6107 50.4044 71.28C50.4044 70.9707 50.2924 70.7413 50.0684 70.592C49.855 70.4427 49.4604 70.368 48.8844 70.368H45.2524H45.2044C44.799 70.2507 44.463 70.1173 44.1964 69.968C43.9297 69.808 43.7377 69.6267 43.6204 69.424C43.503 69.2213 43.4444 68.9973 43.4444 68.752C43.4444 68.4747 43.5137 68.2187 43.6524 67.984C43.791 67.7493 43.9937 67.5253 44.2604 67.312C44.527 67.0987 44.8577 66.896 45.2524 66.704L45.7644 67.072C45.551 67.2213 45.3697 67.3653 45.2204 67.504C45.071 67.632 44.959 67.7653 44.8844 67.904C44.8097 68.032 44.7724 68.1707 44.7724 68.32C44.7724 68.5547 44.879 68.7307 45.0924 68.848C45.3057 68.9547 45.6204 69.008 46.0364 69.008H48.9164C49.5244 69.008 50.0364 69.0827 50.4524 69.232C50.8684 69.3707 51.183 69.5947 51.3964 69.904C51.6204 70.2027 51.7324 70.5867 51.7324 71.056C51.7324 71.696 51.5457 72.224 51.1724 72.64C50.8097 73.056 50.319 73.36 49.7004 73.552C49.0924 73.7547 48.4257 73.856 47.7004 73.856H46.5484ZM54.9056 59.808C54.6176 59.808 54.3776 59.7227 54.1856 59.552C53.9936 59.3707 53.8976 59.12 53.8976 58.8C53.8976 58.48 53.9936 58.2347 54.1856 58.064C54.3776 57.8933 54.6176 57.808 54.9056 57.808C55.2043 57.808 55.4496 57.8933 55.6416 58.064C55.8336 58.2347 55.9296 58.48 55.9296 58.8C55.9296 59.12 55.8336 59.3707 55.6416 59.552C55.4496 59.7227 55.2043 59.808 54.9056 59.808ZM55.7216 61.568V68.512C55.7216 68.8107 55.8443 69.008 56.0896 69.104C56.335 69.2 56.6603 69.248 57.0656 69.248H57.1136V70H52.9216V69.248H52.9536C53.359 69.248 53.6843 69.2 53.9296 69.104C54.1856 69.008 54.3136 68.8107 54.3136 68.512V63.12C54.3136 62.8853 54.2123 62.7253 54.0096 62.64C53.807 62.5547 53.4976 62.4747 53.0816 62.4L52.9056 62.368V61.568H55.7216ZM59.4513 69.296L59.2593 69.072H62.0433C62.3739 69.072 62.6566 69.0613 62.8913 69.04C63.1259 69.0187 63.3179 68.9867 63.4673 68.944C63.6273 68.8907 63.7446 68.8213 63.8193 68.736C63.9046 68.64 63.9579 68.5173 63.9793 68.368L64.1553 67.024H65.0673V70H58.1553V68.96L63.5313 62.304L63.7713 62.48H61.3713C61.0299 62.48 60.7419 62.4907 60.5073 62.512C60.2726 62.5227 60.0806 62.5547 59.9313 62.608C59.7819 62.6613 59.6646 62.7307 59.5793 62.816C59.5046 62.9013 59.4566 63.0187 59.4353 63.168L59.2753 64.304H58.3793V61.568H64.8593V62.528L59.4513 69.296ZM67.7393 65.856C67.7393 66.4427 67.8086 66.9493 67.9473 67.376C68.0966 67.8027 68.2993 68.1547 68.5553 68.432C68.8113 68.6987 69.1099 68.9013 69.4513 69.04C69.7926 69.168 70.1659 69.232 70.5713 69.232C71.0086 69.232 71.3873 69.152 71.7073 68.992C72.0379 68.8213 72.3206 68.6133 72.5553 68.368C72.7899 68.1227 72.9873 67.8667 73.1473 67.6L73.9153 68.24C73.7126 68.6027 73.4513 68.9333 73.1313 69.232C72.8113 69.5307 72.4326 69.7653 71.9953 69.936C71.5686 70.096 71.0833 70.176 70.5393 70.176C69.7393 70.176 69.0139 70.0053 68.3633 69.664C67.7233 69.3227 67.2166 68.8267 66.8433 68.176C66.4699 67.5253 66.2833 66.7467 66.2833 65.84C66.2833 64.9547 66.4539 64.1813 66.7953 63.52C67.1473 62.8587 67.6219 62.3413 68.2193 61.968C68.8166 61.5947 69.4939 61.408 70.2513 61.408C70.8593 61.408 71.3873 61.5093 71.8353 61.712C72.2939 61.904 72.6779 62.2027 72.9873 62.608C73.2966 63.0027 73.5313 63.4987 73.6913 64.096C73.8513 64.6827 73.9313 65.376 73.9313 66.176H67.4193V65.264H72.8753L72.4433 65.616C72.4219 65.0293 72.3633 64.5333 72.2673 64.128C72.1819 63.712 72.0539 63.376 71.8833 63.12C71.7126 62.8533 71.4886 62.6613 71.2113 62.544C70.9446 62.416 70.6246 62.352 70.2513 62.352C69.8886 62.352 69.5526 62.4267 69.2433 62.576C68.9339 62.7253 68.6673 62.9493 68.4433 63.248C68.2193 63.5467 68.0433 63.9147 67.9153 64.352C67.7979 64.7893 67.7393 65.2907 67.7393 65.856ZM83.5984 64.992L83.7744 65.712L80.3504 59.936C80.2544 59.7867 80.1477 59.68 80.0304 59.616C79.9237 59.552 79.7957 59.5147 79.6464 59.504C79.497 59.4827 79.3317 59.472 79.1504 59.472H79.0224V58.64H83.1824V59.472H82.9104C82.729 59.472 82.5424 59.4773 82.3504 59.488C82.1584 59.4987 81.993 59.5147 81.8544 59.536C81.7264 59.5573 81.6624 59.5893 81.6624 59.632L84.7504 64.944L84.3664 64.912L87.2464 59.792C87.2464 59.7173 87.177 59.6587 87.0384 59.616C86.9104 59.5733 86.7504 59.5413 86.5584 59.52C86.3664 59.488 86.1744 59.472 85.9824 59.472H85.7584V58.64H89.5824V59.472H89.4544C89.273 59.472 89.1024 59.488 88.9424 59.52C88.793 59.552 88.649 59.616 88.5104 59.712C88.3824 59.808 88.2597 59.9573 88.1424 60.16L84.9264 65.744L85.0864 64.992V68.592C85.0864 68.8267 85.2144 68.9813 85.4704 69.056C85.737 69.1307 86.0677 69.168 86.4624 69.168H86.7504V70H81.9344V69.168H82.2224C82.617 69.168 82.9424 69.1307 83.1984 69.056C83.465 68.9813 83.5984 68.8267 83.5984 68.592V64.992ZM98.0148 65.792C98.0148 66.6667 97.8334 67.4347 97.4708 68.096C97.1188 68.7573 96.6174 69.2693 95.9668 69.632C95.3268 69.9947 94.5854 70.176 93.7428 70.176C92.8894 70.176 92.1428 69.9947 91.5028 69.632C90.8628 69.2693 90.3614 68.7573 89.9988 68.096C89.6468 67.4347 89.4708 66.6667 89.4708 65.792C89.4708 65.1307 89.5721 64.5333 89.7747 64C89.9774 63.456 90.2708 62.992 90.6548 62.608C91.0388 62.224 91.4868 61.9307 91.9988 61.728C92.5214 61.5147 93.1028 61.408 93.7428 61.408C94.3828 61.408 94.9588 61.5147 95.4708 61.728C95.9934 61.9307 96.4468 62.224 96.8308 62.608C97.2148 62.992 97.5081 63.456 97.7108 64C97.9134 64.5333 98.0148 65.1307 98.0148 65.792ZM90.9748 65.792C90.9748 66.528 91.0814 67.152 91.2948 67.664C91.5081 68.176 91.8228 68.5653 92.2388 68.832C92.6548 69.0987 93.1561 69.232 93.7428 69.232C94.3401 69.232 94.8414 69.0987 95.2468 68.832C95.6628 68.5653 95.9774 68.176 96.1908 67.664C96.4041 67.152 96.5108 66.528 96.5108 65.792C96.5108 65.0667 96.4041 64.448 96.1908 63.936C95.9774 63.424 95.6628 63.0347 95.2468 62.768C94.8414 62.4907 94.3401 62.352 93.7428 62.352C93.1561 62.352 92.6548 62.4907 92.2388 62.768C91.8228 63.0347 91.5081 63.424 91.2948 63.936C91.0814 64.448 90.9748 65.0667 90.9748 65.792ZM101.998 61.568V67.504C101.998 67.8667 102.04 68.1707 102.126 68.416C102.222 68.6507 102.366 68.8267 102.558 68.944C102.76 69.0613 103.032 69.12 103.374 69.12C103.726 69.12 104.062 69.0507 104.382 68.912C104.702 68.7733 105.011 68.5707 105.31 68.304C105.619 68.0267 105.918 67.68 106.206 67.264V68.208C105.907 68.6347 105.598 68.992 105.278 69.28C104.958 69.568 104.611 69.7867 104.238 69.936C103.875 70.0853 103.475 70.16 103.038 70.16C102.536 70.16 102.099 70.0747 101.726 69.904C101.363 69.7227 101.08 69.4453 100.878 69.072C100.675 68.6987 100.574 68.24 100.574 67.696V63.12C100.574 62.8853 100.472 62.72 100.27 62.624C100.078 62.528 99.7736 62.4533 99.3576 62.4L99.1336 62.368V61.568H101.998ZM107.342 61.568V68.576C107.342 68.7253 107.395 68.8427 107.502 68.928C107.619 69.0133 107.774 69.0773 107.966 69.12C108.168 69.152 108.398 69.1787 108.654 69.2L108.734 69.216V70H106.142L106.014 68.208L105.918 68.064V63.12C105.918 62.8853 105.816 62.72 105.614 62.624C105.411 62.528 105.096 62.4587 104.67 62.416L104.286 62.368V61.568H107.342ZM115.669 61.456V62.96C115.594 62.928 115.504 62.9067 115.397 62.896C115.29 62.8853 115.178 62.8747 115.061 62.864C114.954 62.8533 114.848 62.848 114.741 62.848C114.453 62.848 114.192 62.88 113.957 62.944C113.733 63.008 113.525 63.1093 113.333 63.248C113.152 63.376 112.976 63.5467 112.805 63.76C112.645 63.9733 112.474 64.2293 112.293 64.528V63.68C112.517 63.2 112.762 62.7893 113.029 62.448C113.306 62.1067 113.61 61.8453 113.941 61.664C114.282 61.4827 114.661 61.392 115.077 61.392C115.205 61.392 115.322 61.3973 115.429 61.408C115.536 61.4187 115.616 61.4347 115.669 61.456ZM109.765 70V69.248H109.813C110.218 69.248 110.544 69.2 110.789 69.104C111.034 68.9973 111.157 68.784 111.157 68.464V63.12C111.157 62.96 111.109 62.8427 111.013 62.768C110.928 62.6827 110.794 62.6133 110.613 62.56C110.432 62.5067 110.202 62.4533 109.925 62.4L109.765 62.368V61.568H112.357L112.485 63.776L112.581 63.68V68.832C112.581 68.9493 112.656 69.04 112.805 69.104C112.954 69.168 113.13 69.2107 113.333 69.232C113.536 69.2427 113.712 69.248 113.861 69.248H114.197V70H109.765ZM125.69 58.64V59.472H125.498C125.082 59.472 124.736 59.5093 124.458 59.584C124.192 59.6587 124.058 59.8133 124.058 60.048V69.04H126.49C126.949 69.04 127.322 69.024 127.61 68.992C127.898 68.9493 128.112 68.88 128.25 68.784C128.389 68.6773 128.469 68.528 128.49 68.336L128.666 66.352H129.658V70H121.034V69.168H121.21C121.605 69.168 121.93 69.1307 122.186 69.056C122.442 68.9813 122.57 68.8267 122.57 68.592V60.048C122.57 59.8133 122.442 59.6587 122.186 59.584C121.93 59.5093 121.605 59.472 121.21 59.472H121.034V58.64H125.69ZM133.015 59.808C132.727 59.808 132.487 59.7227 132.295 59.552C132.103 59.3707 132.007 59.12 132.007 58.8C132.007 58.48 132.103 58.2347 132.295 58.064C132.487 57.8933 132.727 57.808 133.015 57.808C133.314 57.808 133.559 57.8933 133.751 58.064C133.943 58.2347 134.039 58.48 134.039 58.8C134.039 59.12 133.943 59.3707 133.751 59.552C133.559 59.7227 133.314 59.808 133.015 59.808ZM133.831 61.568V68.512C133.831 68.8107 133.954 69.008 134.199 69.104C134.444 69.2 134.77 69.248 135.175 69.248H135.223V70H131.031V69.248H131.063C131.468 69.248 131.794 69.2 132.039 69.104C132.295 69.008 132.423 68.8107 132.423 68.512V63.12C132.423 62.8853 132.322 62.7253 132.119 62.64C131.916 62.5547 131.607 62.4747 131.191 62.4L131.015 62.368V61.568H133.831ZM136.297 61.568H141.913V62.512H136.297V61.568ZM142.569 57.92V58.976C142.398 58.9227 142.185 58.8693 141.929 58.816C141.683 58.7627 141.411 58.736 141.113 58.736C140.782 58.736 140.489 58.7893 140.233 58.896C139.987 58.992 139.795 59.1787 139.657 59.456C139.518 59.7227 139.449 60.1067 139.449 60.608V69.088C139.449 69.12 139.523 69.152 139.673 69.184C139.822 69.2053 140.009 69.2213 140.233 69.232C140.467 69.2427 140.707 69.248 140.953 69.248H141.273V70H136.361V69.248H136.601C137.049 69.248 137.395 69.2 137.641 69.104C137.897 68.9973 138.025 68.784 138.025 68.464V60.56C138.025 59.824 138.169 59.2587 138.457 58.864C138.755 58.4587 139.139 58.176 139.609 58.016C140.089 57.8453 140.59 57.76 141.113 57.76C141.401 57.76 141.678 57.776 141.945 57.808C142.222 57.84 142.43 57.8773 142.569 57.92ZM144.442 65.856C144.442 66.4427 144.512 66.9493 144.65 67.376C144.8 67.8027 145.002 68.1547 145.258 68.432C145.514 68.6987 145.813 68.9013 146.154 69.04C146.496 69.168 146.869 69.232 147.274 69.232C147.712 69.232 148.09 69.152 148.41 68.992C148.741 68.8213 149.024 68.6133 149.258 68.368C149.493 68.1227 149.69 67.8667 149.85 67.6L150.618 68.24C150.416 68.6027 150.154 68.9333 149.834 69.232C149.514 69.5307 149.136 69.7653 148.698 69.936C148.272 70.096 147.786 70.176 147.242 70.176C146.442 70.176 145.717 70.0053 145.066 69.664C144.426 69.3227 143.92 68.8267 143.546 68.176C143.173 67.5253 142.986 66.7467 142.986 65.84C142.986 64.9547 143.157 64.1813 143.498 63.52C143.85 62.8587 144.325 62.3413 144.922 61.968C145.52 61.5947 146.197 61.408 146.954 61.408C147.562 61.408 148.09 61.5093 148.538 61.712C148.997 61.904 149.381 62.2027 149.69 62.608C150 63.0027 150.234 63.4987 150.394 64.096C150.554 64.6827 150.634 65.376 150.634 66.176H144.122V65.264H149.578L149.146 65.616C149.125 65.0293 149.066 64.5333 148.97 64.128C148.885 63.712 148.757 63.376 148.586 63.12C148.416 62.8533 148.192 62.6613 147.914 62.544C147.648 62.416 147.328 62.352 146.954 62.352C146.592 62.352 146.256 62.4267 145.946 62.576C145.637 62.7253 145.37 62.9493 145.146 63.248C144.922 63.5467 144.746 63.9147 144.618 64.352C144.501 64.7893 144.442 65.2907 144.442 65.856ZM152.855 72.72L151.783 72.096C152.221 71.872 152.594 71.6373 152.903 71.392C153.213 71.1573 153.453 70.9013 153.623 70.624C153.794 70.3573 153.885 70.0693 153.895 69.76C153.906 69.728 153.922 69.696 153.943 69.664C153.965 69.632 153.986 69.6107 154.007 69.6C154.039 69.5893 154.071 69.5893 154.103 69.6C154.135 69.6 154.167 69.616 154.199 69.648C154.157 69.7547 154.098 69.8347 154.023 69.888C153.959 69.9413 153.879 69.9787 153.783 70C153.698 70.032 153.591 70.048 153.463 70.048C153.111 70.048 152.818 69.9573 152.583 69.776C152.359 69.584 152.247 69.328 152.247 69.008C152.247 68.6773 152.359 68.4107 152.583 68.208C152.807 68.0053 153.095 67.904 153.447 67.904C153.714 67.904 153.943 67.9573 154.135 68.064C154.338 68.1707 154.493 68.336 154.599 68.56C154.717 68.7733 154.775 69.0507 154.775 69.392C154.775 69.8507 154.706 70.272 154.567 70.656C154.439 71.0507 154.231 71.4133 153.943 71.744C153.666 72.0853 153.303 72.4107 152.855 72.72ZM169.554 66.48V70H160.722V69.168H160.898C161.293 69.168 161.618 69.1307 161.874 69.056C162.13 68.9813 162.258 68.8267 162.258 68.592V60.048C162.258 59.8133 162.13 59.6587 161.874 59.584C161.618 59.5093 161.293 59.472 160.898 59.472H160.722V58.64H169.138V61.76H168.194L168.034 60.304C168.013 60.112 167.927 59.968 167.778 59.872C167.639 59.7653 167.426 59.696 167.138 59.664C166.861 59.6213 166.493 59.6 166.034 59.6H163.73V69.04H166.418C166.759 69.04 167.053 69.0347 167.298 69.024C167.554 69.0027 167.762 68.9653 167.922 68.912C168.082 68.8587 168.199 68.784 168.274 68.688C168.359 68.592 168.407 68.4747 168.418 68.336L168.594 66.48H169.554ZM163.33 63.744C163.799 63.712 164.269 63.6907 164.738 63.68C165.207 63.6587 165.677 63.6427 166.146 63.632C166.615 63.6107 167.079 63.5893 167.538 63.568V64.784C167.079 64.7627 166.615 64.7413 166.146 64.72C165.677 64.6987 165.207 64.6827 164.738 64.672C164.269 64.6507 163.799 64.6293 163.33 64.608V63.744ZM171.234 70V69.248H171.282C171.687 69.248 172.012 69.2 172.258 69.104C172.503 68.9973 172.626 68.784 172.626 68.464V63.12C172.626 62.96 172.578 62.8427 172.482 62.768C172.396 62.6827 172.263 62.6133 172.082 62.56C171.9 62.5067 171.671 62.4533 171.394 62.4L171.234 62.368V61.568H173.81L173.938 63.328L174.05 63.456V69.088C174.05 69.12 174.108 69.152 174.226 69.184C174.354 69.2053 174.503 69.2213 174.674 69.232C174.855 69.2427 175.015 69.248 175.154 69.248H175.202V70H171.234ZM180.178 70H176.418V69.248H176.466C176.615 69.248 176.775 69.2427 176.946 69.232C177.127 69.2213 177.276 69.2053 177.394 69.184C177.522 69.152 177.586 69.12 177.586 69.088V64.064C177.586 63.6907 177.548 63.3867 177.474 63.152C177.399 62.9173 177.276 62.7413 177.106 62.624C176.946 62.5067 176.716 62.448 176.418 62.448C176.087 62.448 175.772 62.5173 175.474 62.656C175.186 62.7947 174.898 63.0027 174.61 63.28C174.332 63.5467 174.044 63.8827 173.746 64.288L173.762 63.296C174.06 62.88 174.359 62.5333 174.658 62.256C174.956 61.9787 175.276 61.7707 175.618 61.632C175.959 61.4827 176.338 61.408 176.754 61.408C177.223 61.408 177.623 61.4987 177.954 61.68C178.295 61.8507 178.556 62.1227 178.738 62.496C178.919 62.8587 179.01 63.3173 179.01 63.872V69.088C179.01 69.12 179.068 69.152 179.186 69.184C179.314 69.2053 179.468 69.2213 179.65 69.232C179.831 69.2427 179.996 69.248 180.146 69.248H180.178V70ZM185.378 70H181.394V69.248H181.458C181.607 69.248 181.767 69.2427 181.938 69.232C182.108 69.2213 182.252 69.2053 182.37 69.184C182.487 69.152 182.546 69.12 182.546 69.088V64.064C182.546 63.6907 182.508 63.3867 182.434 63.152C182.37 62.9173 182.252 62.7413 182.082 62.624C181.911 62.5067 181.676 62.448 181.378 62.448C181.058 62.448 180.748 62.5173 180.45 62.656C180.151 62.7947 179.858 63.0027 179.57 63.28C179.292 63.5467 179.01 63.8827 178.722 64.288V63.296C179.02 62.88 179.319 62.5333 179.618 62.256C179.916 61.9787 180.236 61.7707 180.578 61.632C180.919 61.4827 181.298 61.408 181.714 61.408C182.183 61.408 182.583 61.4987 182.914 61.68C183.255 61.8507 183.516 62.1227 183.698 62.496C183.879 62.8587 183.97 63.3173 183.97 63.872V68.464C183.97 68.784 184.092 68.9973 184.338 69.104C184.594 69.2 184.924 69.248 185.33 69.248H185.378V70ZM191.498 70.176C191.05 70.176 190.645 70.1013 190.282 69.952C189.93 69.8027 189.605 69.5893 189.306 69.312C189.007 69.024 188.725 68.6667 188.458 68.24L188.49 67.088C188.757 67.5573 189.039 67.952 189.338 68.272C189.637 68.592 189.957 68.832 190.298 68.992C190.65 69.1413 191.029 69.216 191.434 69.216C191.839 69.216 192.197 69.1413 192.506 68.992C192.815 68.832 193.071 68.6027 193.274 68.304C193.487 67.9947 193.642 67.6267 193.738 67.2C193.845 66.7733 193.898 66.288 193.898 65.744C193.898 65.2107 193.85 64.736 193.754 64.32C193.658 63.904 193.509 63.552 193.306 63.264C193.114 62.9653 192.869 62.7413 192.57 62.592C192.271 62.4427 191.925 62.368 191.53 62.368C191.093 62.368 190.693 62.448 190.33 62.608C189.967 62.768 189.637 63.0133 189.338 63.344C189.039 63.664 188.751 64.0693 188.474 64.56L188.458 63.456C188.746 63.0187 189.039 62.6453 189.338 62.336C189.647 62.0267 189.989 61.7973 190.362 61.648C190.735 61.488 191.162 61.408 191.642 61.408C192.421 61.408 193.093 61.5893 193.658 61.952C194.223 62.3147 194.655 62.8213 194.954 63.472C195.253 64.112 195.402 64.8693 195.402 65.744C195.402 66.608 195.242 67.376 194.922 68.048C194.613 68.7093 194.165 69.232 193.578 69.616C193.002 69.9893 192.309 70.176 191.498 70.176ZM187.322 59.552C187.322 59.392 187.274 59.2693 187.178 59.184C187.093 59.0987 186.959 59.0293 186.778 58.976C186.607 58.9227 186.383 58.8747 186.106 58.832L185.93 58.8V58H188.746V68.064L188.634 68.224L188.282 70.144H187.322V59.552ZM202.716 61.456V62.96C202.641 62.928 202.551 62.9067 202.444 62.896C202.337 62.8853 202.225 62.8747 202.108 62.864C202.001 62.8533 201.895 62.848 201.788 62.848C201.5 62.848 201.239 62.88 201.004 62.944C200.78 63.008 200.572 63.1093 200.38 63.248C200.199 63.376 200.023 63.5467 199.852 63.76C199.692 63.9733 199.521 64.2293 199.34 64.528V63.68C199.564 63.2 199.809 62.7893 200.076 62.448C200.353 62.1067 200.657 61.8453 200.988 61.664C201.329 61.4827 201.708 61.392 202.124 61.392C202.252 61.392 202.369 61.3973 202.476 61.408C202.583 61.4187 202.663 61.4347 202.716 61.456ZM196.812 70V69.248H196.86C197.265 69.248 197.591 69.2 197.836 69.104C198.081 68.9973 198.204 68.784 198.204 68.464V63.12C198.204 62.96 198.156 62.8427 198.06 62.768C197.975 62.6827 197.841 62.6133 197.66 62.56C197.479 62.5067 197.249 62.4533 196.972 62.4L196.812 62.368V61.568H199.404L199.532 63.776L199.628 63.68V68.832C199.628 68.9493 199.703 69.04 199.852 69.104C200.001 69.168 200.177 69.2107 200.38 69.232C200.583 69.2427 200.759 69.248 200.908 69.248H201.244V70H196.812ZM209.4 64.864V65.712C208.781 65.7867 208.248 65.872 207.8 65.968C207.352 66.064 206.973 66.176 206.664 66.304C206.355 66.432 206.104 66.576 205.912 66.736C205.731 66.8853 205.597 67.0613 205.512 67.264C205.437 67.4667 205.4 67.6907 205.4 67.936C205.4 68.2133 205.459 68.4533 205.576 68.656C205.693 68.848 205.864 68.9973 206.088 69.104C206.312 69.2107 206.568 69.264 206.856 69.264C207.208 69.264 207.528 69.1787 207.816 69.008C208.104 68.8373 208.376 68.592 208.632 68.272C208.888 67.952 209.133 67.5573 209.368 67.088V68.096C209.176 68.5227 208.941 68.8907 208.664 69.2C208.387 69.5093 208.067 69.7493 207.704 69.92C207.352 70.0907 206.952 70.176 206.504 70.176C206.013 70.176 205.571 70.0907 205.176 69.92C204.792 69.7387 204.488 69.4827 204.264 69.152C204.04 68.8107 203.928 68.4053 203.928 67.936C203.928 67.4987 204.029 67.1147 204.232 66.784C204.445 66.4533 204.771 66.1707 205.208 65.936C205.656 65.6907 206.221 65.4827 206.904 65.312C207.597 65.1413 208.429 64.992 209.4 64.864ZM209.288 70L209.16 68.192L209.048 68.112V64.048C209.048 63.632 208.989 63.3013 208.872 63.056C208.765 62.8 208.589 62.6187 208.344 62.512C208.099 62.4053 207.773 62.352 207.368 62.352C206.771 62.352 206.28 62.448 205.896 62.64C205.512 62.832 205.224 63.0453 205.032 63.28C205.021 63.1733 205.032 63.072 205.064 62.976C205.107 62.88 205.16 62.7947 205.224 62.72C205.299 62.6347 205.384 62.5653 205.48 62.512C205.587 62.448 205.699 62.4 205.816 62.368V64.16H204.408V62.304C204.568 62.1867 204.787 62.0587 205.064 61.92C205.341 61.7813 205.683 61.664 206.088 61.568C206.493 61.4613 206.947 61.408 207.448 61.408C207.864 61.408 208.248 61.4507 208.6 61.536C208.963 61.6213 209.283 61.76 209.56 61.952C209.848 62.144 210.067 62.4 210.216 62.72C210.376 63.0293 210.456 63.4133 210.456 63.872V68.576C210.456 68.7253 210.509 68.8427 210.616 68.928C210.733 69.0133 210.888 69.0773 211.08 69.12C211.283 69.152 211.517 69.1787 211.784 69.2L211.832 69.216V70H209.288ZM217.073 69.232C217.542 69.232 217.942 69.152 218.273 68.992C218.614 68.8213 218.908 68.608 219.153 68.352C219.398 68.0853 219.606 67.8187 219.777 67.552L220.513 68.208C220.289 68.5813 220.012 68.9173 219.681 69.216C219.361 69.5147 218.977 69.7493 218.529 69.92C218.092 70.0907 217.59 70.176 217.025 70.176C216.15 70.176 215.388 69.9947 214.737 69.632C214.086 69.2587 213.585 68.7467 213.233 68.096C212.881 67.4347 212.705 66.6667 212.705 65.792C212.705 64.896 212.886 64.1227 213.249 63.472C213.622 62.8213 214.14 62.3147 214.801 61.952C215.462 61.5893 216.241 61.408 217.137 61.408C217.692 61.408 218.177 61.4613 218.593 61.568C219.02 61.664 219.377 61.7813 219.665 61.92C219.953 62.0587 220.166 62.1813 220.305 62.288V64.576H218.865V62.592C218.982 62.6133 219.089 62.6453 219.185 62.688C219.281 62.72 219.361 62.7733 219.425 62.848C219.489 62.912 219.537 62.9867 219.569 63.072C219.601 63.1573 219.612 63.2533 219.601 63.36C219.388 63.072 219.057 62.832 218.609 62.64C218.161 62.448 217.67 62.352 217.137 62.352C216.476 62.352 215.926 62.4907 215.489 62.768C215.062 63.0453 214.742 63.4453 214.529 63.968C214.316 64.48 214.209 65.088 214.209 65.792C214.209 66.336 214.268 66.8213 214.385 67.248C214.513 67.6747 214.694 68.0373 214.929 68.336C215.164 68.624 215.457 68.848 215.809 69.008C216.172 69.1573 216.593 69.232 217.073 69.232ZM223.286 65.856C223.286 66.4427 223.355 66.9493 223.494 67.376C223.643 67.8027 223.846 68.1547 224.102 68.432C224.358 68.6987 224.657 68.9013 224.998 69.04C225.339 69.168 225.713 69.232 226.118 69.232C226.555 69.232 226.934 69.152 227.254 68.992C227.585 68.8213 227.867 68.6133 228.102 68.368C228.337 68.1227 228.534 67.8667 228.694 67.6L229.462 68.24C229.259 68.6027 228.998 68.9333 228.678 69.232C228.358 69.5307 227.979 69.7653 227.542 69.936C227.115 70.096 226.63 70.176 226.086 70.176C225.286 70.176 224.561 70.0053 223.91 69.664C223.27 69.3227 222.763 68.8267 222.39 68.176C222.017 67.5253 221.83 66.7467 221.83 65.84C221.83 64.9547 222.001 64.1813 222.342 63.52C222.694 62.8587 223.169 62.3413 223.766 61.968C224.363 61.5947 225.041 61.408 225.798 61.408C226.406 61.408 226.934 61.5093 227.382 61.712C227.841 61.904 228.225 62.2027 228.534 62.608C228.843 63.0027 229.078 63.4987 229.238 64.096C229.398 64.6827 229.478 65.376 229.478 66.176H222.966V65.264H228.422L227.99 65.616C227.969 65.0293 227.91 64.5333 227.814 64.128C227.729 63.712 227.601 63.376 227.43 63.12C227.259 62.8533 227.035 62.6613 226.758 62.544C226.491 62.416 226.171 62.352 225.798 62.352C225.435 62.352 225.099 62.4267 224.79 62.576C224.481 62.7253 224.214 62.9493 223.99 63.248C223.766 63.5467 223.59 63.9147 223.462 64.352C223.345 64.7893 223.286 65.2907 223.286 65.856ZM238.089 59.6V68.736C238.089 68.832 238.132 68.912 238.217 68.976C238.313 69.0293 238.436 69.072 238.585 69.104C238.735 69.1253 238.9 69.1413 239.081 69.152C239.263 69.1627 239.439 69.168 239.609 69.168H239.897V70H235.081V69.168H235.257C235.652 69.168 235.977 69.1307 236.233 69.056C236.489 68.9813 236.617 68.8267 236.617 68.592V60.048C236.617 59.8133 236.489 59.6587 236.233 59.584C235.977 59.5093 235.652 59.472 235.257 59.472H235.081V58.64H243.561V61.792H242.617L242.457 60.304C242.436 60.112 242.351 59.968 242.201 59.872C242.063 59.7653 241.849 59.696 241.561 59.664C241.284 59.6213 240.916 59.6 240.457 59.6H238.089ZM237.689 63.872C238.18 63.84 238.671 63.8187 239.161 63.808C239.652 63.7867 240.143 63.7707 240.633 63.76C241.124 63.7387 241.609 63.7173 242.089 63.696V64.912C241.609 64.8907 241.124 64.8693 240.633 64.848C240.143 64.8267 239.652 64.8107 239.161 64.8C238.671 64.7787 238.18 64.7573 237.689 64.736V63.872ZM246.999 59.808C246.711 59.808 246.471 59.7227 246.279 59.552C246.087 59.3707 245.991 59.12 245.991 58.8C245.991 58.48 246.087 58.2347 246.279 58.064C246.471 57.8933 246.711 57.808 246.999 57.808C247.298 57.808 247.543 57.8933 247.735 58.064C247.927 58.2347 248.023 58.48 248.023 58.8C248.023 59.12 247.927 59.3707 247.735 59.552C247.543 59.7227 247.298 59.808 246.999 59.808ZM247.815 61.568V68.512C247.815 68.8107 247.938 69.008 248.183 69.104C248.429 69.2 248.754 69.248 249.159 69.248H249.207V70H245.015V69.248H245.047C245.453 69.248 245.778 69.2 246.023 69.104C246.279 69.008 246.407 68.8107 246.407 68.512V63.12C246.407 62.8853 246.306 62.7253 246.103 62.64C245.901 62.5547 245.591 62.4747 245.175 62.4L244.999 62.368V61.568H247.815ZM249.817 62.512V61.648H249.961C250.302 61.648 250.59 61.6267 250.825 61.584C251.07 61.5307 251.252 61.4347 251.369 61.296C251.497 61.1573 251.561 60.9547 251.561 60.688L252.601 61.568H255.545V62.512H249.817ZM252.873 67.328C252.873 67.7867 252.937 68.1547 253.065 68.432C253.193 68.6987 253.374 68.8907 253.609 69.008C253.854 69.1147 254.137 69.168 254.457 69.168C254.713 69.168 254.953 69.152 255.177 69.12C255.401 69.0773 255.566 69.04 255.673 69.008V69.952C255.566 69.9947 255.438 70.032 255.289 70.064C255.14 70.096 254.98 70.1227 254.809 70.144C254.649 70.1653 254.478 70.176 254.297 70.176C253.806 70.176 253.342 70.096 252.905 69.936C252.478 69.776 252.126 69.4933 251.849 69.088C251.582 68.6827 251.449 68.1013 251.449 67.344V61.808L251.561 61.68V59.184H252.873V67.328ZM256.796 70V69.248H256.844C257.111 69.248 257.346 69.2267 257.548 69.184C257.751 69.1413 257.906 69.0613 258.012 68.944C258.13 68.8267 258.188 68.6667 258.188 68.464V63.12C258.188 62.96 258.14 62.8427 258.044 62.768C257.959 62.6827 257.826 62.6133 257.644 62.56C257.463 62.5067 257.234 62.4533 256.956 62.4L256.796 62.368V61.568H259.388L259.516 63.344L259.612 63.456V69.088C259.612 69.12 259.676 69.152 259.804 69.184C259.932 69.2053 260.087 69.2213 260.268 69.232C260.45 69.2427 260.615 69.248 260.764 69.248H260.812V70H256.796ZM266.38 70H262.364V69.248H262.412C262.562 69.248 262.727 69.2427 262.908 69.232C263.09 69.2213 263.244 69.2053 263.372 69.184C263.511 69.152 263.58 69.12 263.58 69.088V64.048C263.58 63.6853 263.538 63.3867 263.452 63.152C263.367 62.9173 263.223 62.7413 263.02 62.624C262.818 62.5067 262.546 62.448 262.204 62.448C261.852 62.448 261.511 62.5173 261.18 62.656C260.85 62.7947 260.53 63.0027 260.22 63.28C259.922 63.5573 259.623 63.904 259.324 64.32V63.392C259.623 62.9547 259.932 62.592 260.252 62.304C260.583 62.0053 260.935 61.7813 261.308 61.632C261.682 61.4827 262.087 61.408 262.524 61.408C263.047 61.408 263.49 61.4987 263.852 61.68C264.215 61.8507 264.498 62.1227 264.7 62.496C264.903 62.8587 265.004 63.3173 265.004 63.872V68.464C265.004 68.6667 265.058 68.8267 265.164 68.944C265.282 69.0613 265.436 69.1413 265.628 69.184C265.831 69.2267 266.071 69.248 266.348 69.248H266.38V70ZM269.005 65.856C269.005 66.4427 269.074 66.9493 269.213 67.376C269.362 67.8027 269.565 68.1547 269.821 68.432C270.077 68.6987 270.376 68.9013 270.717 69.04C271.058 69.168 271.432 69.232 271.837 69.232C272.274 69.232 272.653 69.152 272.973 68.992C273.304 68.8213 273.586 68.6133 273.821 68.368C274.056 68.1227 274.253 67.8667 274.413 67.6L275.181 68.24C274.978 68.6027 274.717 68.9333 274.397 69.232C274.077 69.5307 273.698 69.7653 273.261 69.936C272.834 70.096 272.349 70.176 271.805 70.176C271.005 70.176 270.28 70.0053 269.629 69.664C268.989 69.3227 268.482 68.8267 268.109 68.176C267.736 67.5253 267.549 66.7467 267.549 65.84C267.549 64.9547 267.72 64.1813 268.061 63.52C268.413 62.8587 268.888 62.3413 269.485 61.968C270.082 61.5947 270.76 61.408 271.517 61.408C272.125 61.408 272.653 61.5093 273.101 61.712C273.56 61.904 273.944 62.2027 274.253 62.608C274.562 63.0027 274.797 63.4987 274.957 64.096C275.117 64.6827 275.197 65.376 275.197 66.176H268.685V65.264H274.141L273.709 65.616C273.688 65.0293 273.629 64.5333 273.533 64.128C273.448 63.712 273.32 63.376 273.149 63.12C272.978 62.8533 272.754 62.6613 272.477 62.544C272.21 62.416 271.89 62.352 271.517 62.352C271.154 62.352 270.818 62.4267 270.509 62.576C270.2 62.7253 269.933 62.9493 269.709 63.248C269.485 63.5467 269.309 63.9147 269.181 64.352C269.064 64.7893 269.005 65.2907 269.005 65.856ZM281.875 67.792C281.875 67.5467 281.811 67.344 281.683 67.184C281.566 67.0133 281.4 66.88 281.187 66.784C280.984 66.6773 280.75 66.5867 280.483 66.512C280.227 66.4373 279.955 66.368 279.667 66.304C279.326 66.2293 278.984 66.1387 278.643 66.032C278.312 65.9147 278.008 65.7707 277.731 65.6C277.454 65.4187 277.235 65.184 277.075 64.896C276.915 64.608 276.835 64.2507 276.835 63.824C276.835 63.3333 276.952 62.9067 277.187 62.544C277.432 62.1813 277.784 61.904 278.243 61.712C278.702 61.5093 279.262 61.408 279.923 61.408C280.435 61.408 280.878 61.44 281.251 61.504C281.635 61.568 281.955 61.648 282.211 61.744C282.467 61.84 282.659 61.9307 282.787 62.016V63.936H281.379V62.32C281.496 62.32 281.592 62.336 281.667 62.368C281.752 62.4 281.816 62.448 281.859 62.512C281.912 62.576 281.944 62.656 281.955 62.752C281.976 62.848 281.982 62.9547 281.971 63.072C281.843 62.912 281.672 62.7787 281.459 62.672C281.256 62.5547 281.027 62.4693 280.771 62.416C280.515 62.3627 280.232 62.336 279.923 62.336C279.315 62.336 278.867 62.4587 278.579 62.704C278.291 62.9387 278.147 63.2533 278.147 63.648C278.147 63.904 278.206 64.1173 278.323 64.288C278.451 64.448 278.622 64.5813 278.835 64.688C279.048 64.7947 279.288 64.8853 279.555 64.96C279.832 65.0347 280.126 65.1093 280.435 65.184C280.766 65.2587 281.096 65.3493 281.427 65.456C281.758 65.5627 282.056 65.7067 282.323 65.888C282.6 66.0693 282.819 66.304 282.979 66.592C283.139 66.8693 283.219 67.2213 283.219 67.648C283.219 68.128 283.091 68.56 282.835 68.944C282.579 69.328 282.206 69.632 281.715 69.856C281.224 70.0693 280.622 70.176 279.907 70.176C279.384 70.176 278.91 70.1387 278.483 70.064C278.067 69.9893 277.699 69.888 277.379 69.76C277.059 69.632 276.776 69.4933 276.531 69.344V67.344H277.955V69.488C277.795 69.4027 277.667 69.3173 277.571 69.232C277.486 69.136 277.427 69.0453 277.395 68.96C277.363 68.864 277.347 68.768 277.347 68.672C277.358 68.576 277.374 68.48 277.395 68.384C277.566 68.5653 277.774 68.72 278.019 68.848C278.275 68.9653 278.558 69.0613 278.867 69.136C279.187 69.2 279.528 69.232 279.891 69.232C280.328 69.232 280.691 69.1787 280.979 69.072C281.267 68.9653 281.486 68.8053 281.635 68.592C281.795 68.3787 281.875 68.112 281.875 67.792ZM289.828 67.792C289.828 67.5467 289.764 67.344 289.636 67.184C289.519 67.0133 289.353 66.88 289.14 66.784C288.937 66.6773 288.703 66.5867 288.436 66.512C288.18 66.4373 287.908 66.368 287.62 66.304C287.279 66.2293 286.937 66.1387 286.596 66.032C286.265 65.9147 285.961 65.7707 285.684 65.6C285.407 65.4187 285.188 65.184 285.028 64.896C284.868 64.608 284.788 64.2507 284.788 63.824C284.788 63.3333 284.905 62.9067 285.14 62.544C285.385 62.1813 285.737 61.904 286.196 61.712C286.655 61.5093 287.215 61.408 287.876 61.408C288.388 61.408 288.831 61.44 289.204 61.504C289.588 61.568 289.908 61.648 290.164 61.744C290.42 61.84 290.612 61.9307 290.74 62.016V63.936H289.332V62.32C289.449 62.32 289.545 62.336 289.62 62.368C289.705 62.4 289.769 62.448 289.812 62.512C289.865 62.576 289.897 62.656 289.908 62.752C289.929 62.848 289.935 62.9547 289.924 63.072C289.796 62.912 289.625 62.7787 289.412 62.672C289.209 62.5547 288.98 62.4693 288.724 62.416C288.468 62.3627 288.185 62.336 287.876 62.336C287.268 62.336 286.82 62.4587 286.532 62.704C286.244 62.9387 286.1 63.2533 286.1 63.648C286.1 63.904 286.159 64.1173 286.276 64.288C286.404 64.448 286.575 64.5813 286.788 64.688C287.001 64.7947 287.241 64.8853 287.508 64.96C287.785 65.0347 288.079 65.1093 288.388 65.184C288.719 65.2587 289.049 65.3493 289.38 65.456C289.711 65.5627 290.009 65.7067 290.276 65.888C290.553 66.0693 290.772 66.304 290.932 66.592C291.092 66.8693 291.172 67.2213 291.172 67.648C291.172 68.128 291.044 68.56 290.788 68.944C290.532 69.328 290.159 69.632 289.668 69.856C289.177 70.0693 288.575 70.176 287.86 70.176C287.337 70.176 286.863 70.1387 286.436 70.064C286.02 69.9893 285.652 69.888 285.332 69.76C285.012 69.632 284.729 69.4933 284.484 69.344V67.344H285.908V69.488C285.748 69.4027 285.62 69.3173 285.524 69.232C285.439 69.136 285.38 69.0453 285.348 68.96C285.316 68.864 285.3 68.768 285.3 68.672C285.311 68.576 285.327 68.48 285.348 68.384C285.519 68.5653 285.727 68.72 285.972 68.848C286.228 68.9653 286.511 69.0613 286.82 69.136C287.14 69.2 287.481 69.232 287.844 69.232C288.281 69.232 288.644 69.1787 288.932 69.072C289.22 68.9653 289.439 68.8053 289.588 68.592C289.748 68.3787 289.828 68.112 289.828 67.792ZM294.02 70.112C293.679 70.112 293.396 70.0107 293.172 69.808C292.948 69.6053 292.836 69.344 292.836 69.024C292.836 68.6827 292.948 68.4107 293.172 68.208C293.396 68.0053 293.679 67.904 294.02 67.904C294.383 67.904 294.676 68.0053 294.9 68.208C295.124 68.4107 295.236 68.6827 295.236 69.024C295.236 69.344 295.124 69.6053 294.9 69.808C294.676 70.0107 294.383 70.112 294.02 70.112Z" fill="#5D0000"/>
</svg>
